<?xml version="1.0" encoding="UTF-8" standalone="no"?>
<!DOCTYPE svg PUBLIC "-//W3C//DTD SVG 1.1//EN"
 "http://www.w3.org/Graphics/SVG/1.1/DTD/svg11.dtd">
<!-- Generated by graphviz version 2.40.1 (20161225.0304)
 -->
<!-- Title: dependencies Pages: 1 -->
<svg width="764pt" height="211pt"
 viewBox="0.00 0.00 764.00 211.00" xmlns="http://www.w3.org/2000/svg" xmlns:xlink="http://www.w3.org/1999/xlink">
<g id="graph0" class="graph" transform="scale(1 1) rotate(0) translate(4 207)">
<title>dependencies</title>
<polygon fill="#ffffff" stroke="transparent" points="-4,4 -4,-207 760,-207 760,4 -4,4"/>
<text text-anchor="start" x="357.0091" y="-42.4" font-family="sans-serif" font-weight="bold" font-size="14.00" fill="#000000">Legend</text>
<polygon fill="#ffffb3" stroke="transparent" points="144,-10 144,-30 164,-30 164,-10 144,-10"/>
<text text-anchor="start" x="167.629" y="-15.4" font-family="sans-serif" font-size="14.00" fill="#000000"> &#160;Declarations</text>
<polygon fill="#8dd3c7" stroke="transparent" points="257,-10 257,-30 277,-30 277,-10 257,-10"/>
<text text-anchor="start" x="280.7251" y="-15.4" font-family="sans-serif" font-size="14.00" fill="#000000"> &#160;Module</text>
<polygon fill="#80b1d3" stroke="transparent" points="343,-10 343,-30 363,-30 363,-10 343,-10"/>
<text text-anchor="start" x="366.7812" y="-15.4" font-family="sans-serif" font-size="14.00" fill="#000000"> &#160;Bootstrap</text>
<polygon fill="#fdb462" stroke="transparent" points="440,-10 440,-30 460,-30 460,-10 440,-10"/>
<text text-anchor="start" x="463.6732" y="-15.4" font-family="sans-serif" font-size="14.00" fill="#000000"> &#160;Providers</text>
<polygon fill="#fb8072" stroke="transparent" points="536,-10 536,-30 556,-30 556,-10 536,-10"/>
<text text-anchor="start" x="559.7258" y="-15.4" font-family="sans-serif" font-size="14.00" fill="#000000"> &#160;Exports</text>
<g id="clust1" class="cluster">
<title>cluster_PlCoreModule</title>
<polygon fill="none" stroke="#000000" stroke-dasharray="1,5" points="8,-70 8,-195 748,-195 748,-70 8,-70"/>
</g>
<g id="clust2" class="cluster">
<title>cluster_PlCoreModule_declarations</title>
<polygon fill="none" stroke="#000000" points="582,-78 582,-130 740,-130 740,-78 582,-78"/>
</g>
<g id="clust7" class="cluster">
<title>cluster_PlCoreModule_providers</title>
<polygon fill="none" stroke="#000000" points="16,-78 16,-130 574,-130 574,-78 16,-78"/>
</g>
<!-- PlProgressComponent -->
<g id="node1" class="node">
<title>PlProgressComponent</title>
<polygon fill="#ffffb3" stroke="#000000" points="731.7134,-122 590.2866,-122 590.2866,-86 731.7134,-86 731.7134,-122"/>
<text text-anchor="middle" x="661" y="-99.8" font-family="Times,serif" font-size="14.00" fill="#000000">PlProgressComponent</text>
</g>
<!-- PlCoreModule -->
<g id="node2" class="node">
<title>PlCoreModule</title>
<polygon fill="#8dd3c7" stroke="#000000" points="483.4358,-187 480.4358,-191 459.4358,-191 456.4358,-187 384.5642,-187 384.5642,-151 483.4358,-151 483.4358,-187"/>
<text text-anchor="middle" x="434" y="-164.8" font-family="Times,serif" font-size="14.00" fill="#000000">PlCoreModule</text>
</g>
<!-- PlProgressComponent&#45;&gt;PlCoreModule -->
<g id="edge1" class="edge">
<title>PlProgressComponent&#45;&gt;PlCoreModule</title>
<path fill="none" stroke="#000000" d="M661,-122.1061C661,-141.3391 661,-169 661,-169 661,-169 493.2556,-169 493.2556,-169"/>
<polygon fill="#000000" stroke="#000000" points="493.2557,-165.5001 483.2556,-169 493.2556,-172.5001 493.2557,-165.5001"/>
</g>
<!-- PlAmbientModeLoaderService -->
<g id="node3" class="node">
<title>PlAmbientModeLoaderService</title>
<ellipse fill="#fdb462" stroke="#000000" cx="434" cy="-104" rx="131.9216" ry="18"/>
<text text-anchor="middle" x="434" y="-99.8" font-family="Times,serif" font-size="14.00" fill="#000000">PlAmbientModeLoaderService</text>
</g>
<!-- PlAmbientModeLoaderService&#45;&gt;PlCoreModule -->
<g id="edge2" class="edge">
<title>PlAmbientModeLoaderService&#45;&gt;PlCoreModule</title>
<path fill="none" stroke="#000000" d="M434,-122.1061C434,-122.1061 434,-140.991 434,-140.991"/>
<polygon fill="#000000" stroke="#000000" points="430.5001,-140.9909 434,-150.991 437.5001,-140.991 430.5001,-140.9909"/>
</g>
<!-- PlHttpInterceptorMockService -->
<g id="node4" class="node">
<title>PlHttpInterceptorMockService</title>
<ellipse fill="#fdb462" stroke="#000000" cx="154" cy="-104" rx="130.1921" ry="18"/>
<text text-anchor="middle" x="154" y="-99.8" font-family="Times,serif" font-size="14.00" fill="#000000">PlHttpInterceptorMockService</text>
</g>
<!-- PlHttpInterceptorMockService&#45;&gt;PlCoreModule -->
<g id="edge3" class="edge">
<title>PlHttpInterceptorMockService&#45;&gt;PlCoreModule</title>
<path fill="none" stroke="#000000" d="M154,-122.1061C154,-141.3391 154,-169 154,-169 154,-169 374.5862,-169 374.5862,-169"/>
<polygon fill="#000000" stroke="#000000" points="374.5862,-172.5001 384.5862,-169 374.5861,-165.5001 374.5862,-172.5001"/>
</g>
</g>
</svg>
