<?xml version="1.0" encoding="UTF-8" standalone="no"?>
<!DOCTYPE svg PUBLIC "-//W3C//DTD SVG 1.1//EN"
 "http://www.w3.org/Graphics/SVG/1.1/DTD/svg11.dtd">
<!-- Generated by graphviz version 2.40.1 (20161225.0304)
 -->
<!-- Title: dependencies Pages: 1 -->
<svg width="892pt" height="211pt"
 viewBox="0.00 0.00 892.00 211.00" xmlns="http://www.w3.org/2000/svg" xmlns:xlink="http://www.w3.org/1999/xlink">
<g id="graph0" class="graph" transform="scale(1 1) rotate(0) translate(4 207)">
<title>dependencies</title>
<polygon fill="#ffffff" stroke="transparent" points="-4,4 -4,-207 888,-207 888,4 -4,4"/>
<text text-anchor="start" x="421.0091" y="-42.4" font-family="sans-serif" font-weight="bold" font-size="14.00" fill="#000000">Legend</text>
<polygon fill="#ffffb3" stroke="transparent" points="208,-10 208,-30 228,-30 228,-10 208,-10"/>
<text text-anchor="start" x="231.629" y="-15.4" font-family="sans-serif" font-size="14.00" fill="#000000"> &#160;Declarations</text>
<polygon fill="#8dd3c7" stroke="transparent" points="321,-10 321,-30 341,-30 341,-10 321,-10"/>
<text text-anchor="start" x="344.7251" y="-15.4" font-family="sans-serif" font-size="14.00" fill="#000000"> &#160;Module</text>
<polygon fill="#80b1d3" stroke="transparent" points="407,-10 407,-30 427,-30 427,-10 407,-10"/>
<text text-anchor="start" x="430.7812" y="-15.4" font-family="sans-serif" font-size="14.00" fill="#000000"> &#160;Bootstrap</text>
<polygon fill="#fdb462" stroke="transparent" points="504,-10 504,-30 524,-30 524,-10 504,-10"/>
<text text-anchor="start" x="527.6732" y="-15.4" font-family="sans-serif" font-size="14.00" fill="#000000"> &#160;Providers</text>
<polygon fill="#fb8072" stroke="transparent" points="600,-10 600,-30 620,-30 620,-10 600,-10"/>
<text text-anchor="start" x="623.7258" y="-15.4" font-family="sans-serif" font-size="14.00" fill="#000000"> &#160;Exports</text>
<g id="clust1" class="cluster">
<title>cluster_PlCoreModule</title>
<polygon fill="none" stroke="#000000" stroke-dasharray="1,5" points="8,-70 8,-195 876,-195 876,-70 8,-70"/>
</g>
<g id="clust2" class="cluster">
<title>cluster_PlCoreModule_declarations</title>
<polygon fill="none" stroke="#000000" points="582,-78 582,-130 868,-130 868,-78 582,-78"/>
</g>
<g id="clust8" class="cluster">
<title>cluster_PlCoreModule_providers</title>
<polygon fill="none" stroke="#000000" points="16,-78 16,-130 574,-130 574,-78 16,-78"/>
</g>
<!-- AlertComponent -->
<g id="node1" class="node">
<title>AlertComponent</title>
<polygon fill="#ffffb3" stroke="#000000" points="860.0954,-122 749.9046,-122 749.9046,-86 860.0954,-86 860.0954,-122"/>
<text text-anchor="middle" x="805" y="-99.8" font-family="Times,serif" font-size="14.00" fill="#000000">AlertComponent</text>
</g>
<!-- PlCoreModule -->
<g id="node3" class="node">
<title>PlCoreModule</title>
<polygon fill="#8dd3c7" stroke="#000000" points="596.4358,-187 593.4358,-191 572.4358,-191 569.4358,-187 497.5642,-187 497.5642,-151 596.4358,-151 596.4358,-187"/>
<text text-anchor="middle" x="547" y="-164.8" font-family="Times,serif" font-size="14.00" fill="#000000">PlCoreModule</text>
</g>
<!-- AlertComponent&#45;&gt;PlCoreModule -->
<g id="edge1" class="edge">
<title>AlertComponent&#45;&gt;PlCoreModule</title>
<path fill="none" stroke="#000000" d="M805,-122.1061C805,-141.3391 805,-169 805,-169 805,-169 606.4397,-169 606.4397,-169"/>
<polygon fill="#000000" stroke="#000000" points="606.4398,-165.5001 596.4397,-169 606.4397,-172.5001 606.4398,-165.5001"/>
</g>
<!-- PlProgressComponent -->
<g id="node2" class="node">
<title>PlProgressComponent</title>
<polygon fill="#ffffb3" stroke="#000000" points="731.7134,-122 590.2866,-122 590.2866,-86 731.7134,-86 731.7134,-122"/>
<text text-anchor="middle" x="661" y="-99.8" font-family="Times,serif" font-size="14.00" fill="#000000">PlProgressComponent</text>
</g>
<!-- PlProgressComponent&#45;&gt;PlCoreModule -->
<g id="edge2" class="edge">
<title>PlProgressComponent&#45;&gt;PlCoreModule</title>
<path fill="none" stroke="#000000" d="M590.2913,-104C582.9173,-104 578.052,-104 578.052,-104 578.052,-104 578.052,-140.8939 578.052,-140.8939"/>
<polygon fill="#000000" stroke="#000000" points="574.5521,-140.8938 578.052,-150.8939 581.5521,-140.8939 574.5521,-140.8938"/>
</g>
<!-- PlAmbientModeLoaderService -->
<g id="node4" class="node">
<title>PlAmbientModeLoaderService</title>
<ellipse fill="#fdb462" stroke="#000000" cx="434" cy="-104" rx="131.9216" ry="18"/>
<text text-anchor="middle" x="434" y="-99.8" font-family="Times,serif" font-size="14.00" fill="#000000">PlAmbientModeLoaderService</text>
</g>
<!-- PlAmbientModeLoaderService&#45;&gt;PlCoreModule -->
<g id="edge3" class="edge">
<title>PlAmbientModeLoaderService&#45;&gt;PlCoreModule</title>
<path fill="none" stroke="#000000" d="M531.7466,-116.226C531.7466,-116.226 531.7466,-140.683 531.7466,-140.683"/>
<polygon fill="#000000" stroke="#000000" points="528.2467,-140.683 531.7466,-150.683 535.2467,-140.683 528.2467,-140.683"/>
</g>
<!-- PlHttpInterceptorMockService -->
<g id="node5" class="node">
<title>PlHttpInterceptorMockService</title>
<ellipse fill="#fdb462" stroke="#000000" cx="154" cy="-104" rx="130.1921" ry="18"/>
<text text-anchor="middle" x="154" y="-99.8" font-family="Times,serif" font-size="14.00" fill="#000000">PlHttpInterceptorMockService</text>
</g>
<!-- PlHttpInterceptorMockService&#45;&gt;PlCoreModule -->
<g id="edge4" class="edge">
<title>PlHttpInterceptorMockService&#45;&gt;PlCoreModule</title>
<path fill="none" stroke="#000000" d="M154,-122.1061C154,-141.3391 154,-169 154,-169 154,-169 487.6242,-169 487.6242,-169"/>
<polygon fill="#000000" stroke="#000000" points="487.6242,-172.5001 497.6242,-169 487.6242,-165.5001 487.6242,-172.5001"/>
</g>
</g>
</svg>
