<?xml version="1.0" encoding="UTF-8" standalone="no"?>
<!DOCTYPE svg PUBLIC "-//W3C//DTD SVG 1.1//EN"
 "http://www.w3.org/Graphics/SVG/1.1/DTD/svg11.dtd">
<!-- Generated by graphviz version 2.46.0 (20210119.1425)
 -->
<!-- Title: dependencies Pages: 1 -->
<svg width="504pt" height="284pt"
 viewBox="0.00 0.00 504.00 284.00" xmlns="http://www.w3.org/2000/svg" xmlns:xlink="http://www.w3.org/1999/xlink">
<g id="graph0" class="graph" transform="scale(1 1) rotate(0) translate(4 280)">
<title>dependencies</title>
<polygon fill="white" stroke="transparent" points="-4,4 -4,-280 500,-280 500,4 -4,4"/>
<text text-anchor="start" x="227.01" y="-42.4" font-family="sans-serif" font-weight="bold" font-size="14.00">Legend</text>
<polygon fill="#ffffb3" stroke="transparent" points="14,-10 14,-30 34,-30 34,-10 14,-10"/>
<text text-anchor="start" x="37.63" y="-15.4" font-family="sans-serif" font-size="14.00"> &#160;Declarations</text>
<polygon fill="#8dd3c7" stroke="transparent" points="127,-10 127,-30 147,-30 147,-10 127,-10"/>
<text text-anchor="start" x="150.73" y="-15.4" font-family="sans-serif" font-size="14.00"> &#160;Module</text>
<polygon fill="#80b1d3" stroke="transparent" points="213,-10 213,-30 233,-30 233,-10 213,-10"/>
<text text-anchor="start" x="236.78" y="-15.4" font-family="sans-serif" font-size="14.00"> &#160;Bootstrap</text>
<polygon fill="#fdb462" stroke="transparent" points="310,-10 310,-30 330,-30 330,-10 310,-10"/>
<text text-anchor="start" x="333.67" y="-15.4" font-family="sans-serif" font-size="14.00"> &#160;Providers</text>
<polygon fill="#fb8072" stroke="transparent" points="406,-10 406,-30 426,-30 426,-10 406,-10"/>
<text text-anchor="start" x="429.73" y="-15.4" font-family="sans-serif" font-size="14.00"> &#160;Exports</text>
<g id="clust1" class="cluster">
<title>cluster_SharedModule</title>
<polygon fill="none" stroke="black" stroke-dasharray="1,5" points="61,-70 61,-268 435,-268 435,-70 61,-70"/>
</g>
<g id="clust5" class="cluster">
<title>cluster_SharedModule_exports</title>
<polygon fill="none" stroke="black" points="145,-208 145,-260 351,-260 351,-208 145,-208"/>
</g>
<g id="clust2" class="cluster">
<title>cluster_SharedModule_declarations</title>
<polygon fill="none" stroke="black" points="225,-78 225,-130 427,-130 427,-78 225,-78"/>
</g>
<g id="clust7" class="cluster">
<title>cluster_SharedModule_providers</title>
<polygon fill="none" stroke="black" points="69,-78 69,-130 217,-130 217,-78 69,-78"/>
</g>
<!-- HttpGraphicSpeedComponent -->
<g id="node1" class="node">
<title>HttpGraphicSpeedComponent</title>
<polygon fill="#ffffb3" stroke="black" points="418.52,-122 233.48,-122 233.48,-86 418.52,-86 418.52,-122"/>
<text text-anchor="middle" x="326" y="-99.8" font-family="Times,serif" font-size="14.00">HttpGraphicSpeedComponent</text>
</g>
<!-- SharedModule -->
<g id="node2" class="node">
<title>SharedModule</title>
<polygon fill="#8dd3c7" stroke="black" points="297.42,-187 294.42,-191 273.42,-191 270.42,-187 198.58,-187 198.58,-151 297.42,-151 297.42,-187"/>
<text text-anchor="middle" x="248" y="-164.8" font-family="Times,serif" font-size="14.00">SharedModule</text>
</g>
<!-- HttpGraphicSpeedComponent&#45;&gt;SharedModule -->
<g id="edge1" class="edge">
<title>HttpGraphicSpeedComponent&#45;&gt;SharedModule</title>
<path fill="none" stroke="black" d="M265.23,-122.11C265.23,-122.11 265.23,-140.99 265.23,-140.99"/>
<polygon fill="black" stroke="black" points="261.73,-140.99 265.23,-150.99 268.73,-140.99 261.73,-140.99"/>
</g>
<!-- HttpGraphicSpeedComponent  -->
<g id="node3" class="node">
<title>HttpGraphicSpeedComponent </title>
<polygon fill="#fb8072" stroke="black" points="342.52,-252 153.48,-252 153.48,-216 342.52,-216 342.52,-252"/>
<text text-anchor="middle" x="248" y="-229.8" font-family="Times,serif" font-size="14.00">HttpGraphicSpeedComponent </text>
</g>
<!-- SharedModule&#45;&gt;HttpGraphicSpeedComponent  -->
<g id="edge2" class="edge">
<title>SharedModule&#45;&gt;HttpGraphicSpeedComponent </title>
<path fill="none" stroke="black" stroke-dasharray="5,2" d="M248,-187.11C248,-187.11 248,-205.99 248,-205.99"/>
<polygon fill="black" stroke="black" points="244.5,-205.99 248,-215.99 251.5,-205.99 244.5,-205.99"/>
</g>
<!-- GlobalService -->
<g id="node4" class="node">
<title>GlobalService</title>
<ellipse fill="#fdb462" stroke="black" cx="143" cy="-104" rx="66.05" ry="18"/>
<text text-anchor="middle" x="143" y="-99.8" font-family="Times,serif" font-size="14.00">GlobalService</text>
</g>
<!-- GlobalService&#45;&gt;SharedModule -->
<g id="edge3" class="edge">
<title>GlobalService&#45;&gt;SharedModule</title>
<path fill="none" stroke="black" d="M204.03,-111.2C204.03,-111.2 204.03,-140.96 204.03,-140.96"/>
<polygon fill="black" stroke="black" points="200.53,-140.96 204.03,-150.96 207.53,-140.96 200.53,-140.96"/>
</g>
</g>
</svg>
