<?xml version="1.0" encoding="UTF-8" standalone="no"?>
<!DOCTYPE svg PUBLIC "-//W3C//DTD SVG 1.1//EN"
 "http://www.w3.org/Graphics/SVG/1.1/DTD/svg11.dtd">
<!-- Generated by graphviz version 2.40.1 (20161225.0304)
 -->
<!-- Title: dependencies Pages: 1 -->
<svg width="629pt" height="360pt"
 viewBox="0.00 0.00 629.00 360.00" xmlns="http://www.w3.org/2000/svg" xmlns:xlink="http://www.w3.org/1999/xlink">
<g id="graph0" class="graph" transform="scale(1 1) rotate(0) translate(4 356)">
<title>dependencies</title>
<polygon fill="#ffffff" stroke="transparent" points="-4,4 -4,-356 625,-356 625,4 -4,4"/>
<text text-anchor="start" x="289.5091" y="-42.4" font-family="sans-serif" font-weight="bold" font-size="14.00" fill="#000000">Legend</text>
<polygon fill="#ffffb3" stroke="transparent" points="76.5,-10 76.5,-30 96.5,-30 96.5,-10 76.5,-10"/>
<text text-anchor="start" x="100.129" y="-15.4" font-family="sans-serif" font-size="14.00" fill="#000000"> &#160;Declarations</text>
<polygon fill="#8dd3c7" stroke="transparent" points="189.5,-10 189.5,-30 209.5,-30 209.5,-10 189.5,-10"/>
<text text-anchor="start" x="213.2251" y="-15.4" font-family="sans-serif" font-size="14.00" fill="#000000"> &#160;Module</text>
<polygon fill="#80b1d3" stroke="transparent" points="275.5,-10 275.5,-30 295.5,-30 295.5,-10 275.5,-10"/>
<text text-anchor="start" x="299.2812" y="-15.4" font-family="sans-serif" font-size="14.00" fill="#000000"> &#160;Bootstrap</text>
<polygon fill="#fdb462" stroke="transparent" points="372.5,-10 372.5,-30 392.5,-30 392.5,-10 372.5,-10"/>
<text text-anchor="start" x="396.1732" y="-15.4" font-family="sans-serif" font-size="14.00" fill="#000000"> &#160;Providers</text>
<polygon fill="#fb8072" stroke="transparent" points="468.5,-10 468.5,-30 488.5,-30 488.5,-10 468.5,-10"/>
<text text-anchor="start" x="492.2258" y="-15.4" font-family="sans-serif" font-size="14.00" fill="#000000"> &#160;Exports</text>
<g id="clust1" class="cluster">
<title>cluster_AppModule</title>
<polygon fill="none" stroke="#000000" stroke-dasharray="1,5" points="204,-146 204,-344 613,-344 613,-146 204,-146"/>
</g>
<g id="clust2" class="cluster">
<title>cluster_AppModule_declarations</title>
<polygon fill="none" stroke="#000000" points="334,-154 334,-206 605,-206 605,-154 334,-154"/>
</g>
<g id="clust5" class="cluster">
<title>cluster_AppModule_imports</title>
<polygon fill="none" stroke="#000000" points="212,-154 212,-206 326,-206 326,-154 212,-154"/>
</g>
<g id="clust7" class="cluster">
<title>cluster_AppModule_bootstrap</title>
<polygon fill="none" stroke="#000000" points="346,-284 346,-336 470,-336 470,-284 346,-284"/>
</g>
<g id="clust9" class="cluster">
<title>cluster_PlCoreModule</title>
<polygon fill="none" stroke="#000000" stroke-dasharray="1,5" points="8,-70 8,-138 470,-138 470,-70 8,-70"/>
</g>
<g id="clust10" class="cluster">
<title>cluster_PlCoreModule_declarations</title>
<polygon fill="none" stroke="#000000" points="304,-78 304,-130 462,-130 462,-78 304,-78"/>
</g>
<g id="clust15" class="cluster">
<title>cluster_PlCoreModule_providers</title>
<polygon fill="none" stroke="#000000" points="16,-78 16,-130 296,-130 296,-78 16,-78"/>
</g>
<!-- AppComponent -->
<g id="node1" class="node">
<title>AppComponent</title>
<polygon fill="#ffffb3" stroke="#000000" points="596.9399,-198 491.0601,-198 491.0601,-162 596.9399,-162 596.9399,-198"/>
<text text-anchor="middle" x="544" y="-175.8" font-family="Times,serif" font-size="14.00" fill="#000000">AppComponent</text>
</g>
<!-- AppModule -->
<g id="node3" class="node">
<title>AppModule</title>
<polygon fill="#8dd3c7" stroke="#000000" points="449.6571,-263 446.6571,-267 425.6571,-267 422.6571,-263 366.3429,-263 366.3429,-227 449.6571,-227 449.6571,-263"/>
<text text-anchor="middle" x="408" y="-240.8" font-family="Times,serif" font-size="14.00" fill="#000000">AppModule</text>
</g>
<!-- AppComponent&#45;&gt;AppModule -->
<g id="edge1" class="edge">
<title>AppComponent&#45;&gt;AppModule</title>
<path fill="none" stroke="#000000" d="M544,-198.1061C544,-217.3391 544,-245 544,-245 544,-245 459.9142,-245 459.9142,-245"/>
<polygon fill="#000000" stroke="#000000" points="459.9142,-241.5001 449.9142,-245 459.9142,-248.5001 459.9142,-241.5001"/>
</g>
<!-- ExampleComponent -->
<g id="node2" class="node">
<title>ExampleComponent</title>
<polygon fill="#ffffb3" stroke="#000000" points="473.5954,-198 342.4046,-198 342.4046,-162 473.5954,-162 473.5954,-198"/>
<text text-anchor="middle" x="408" y="-175.8" font-family="Times,serif" font-size="14.00" fill="#000000">ExampleComponent</text>
</g>
<!-- ExampleComponent&#45;&gt;AppModule -->
<g id="edge2" class="edge">
<title>ExampleComponent&#45;&gt;AppModule</title>
<path fill="none" stroke="#000000" d="M408,-198.1061C408,-198.1061 408,-216.991 408,-216.991"/>
<polygon fill="#000000" stroke="#000000" points="404.5001,-216.9909 408,-226.991 411.5001,-216.991 404.5001,-216.9909"/>
</g>
<!-- AppComponent  -->
<g id="node5" class="node">
<title>AppComponent </title>
<polygon fill="#80b1d3" stroke="#000000" points="462.439,-328 353.561,-328 353.561,-292 462.439,-292 462.439,-328"/>
<text text-anchor="middle" x="408" y="-305.8" font-family="Times,serif" font-size="14.00" fill="#000000">AppComponent </text>
</g>
<!-- AppModule&#45;&gt;AppComponent  -->
<g id="edge4" class="edge">
<title>AppModule&#45;&gt;AppComponent </title>
<path fill="none" stroke="#000000" stroke-dasharray="1,5" d="M408,-263.1061C408,-263.1061 408,-281.991 408,-281.991"/>
<polygon fill="#000000" stroke="#000000" points="404.5001,-281.9909 408,-291.991 411.5001,-281.991 404.5001,-281.9909"/>
</g>
<!-- PlCoreModule -->
<g id="node4" class="node">
<title>PlCoreModule</title>
<polygon fill="#8dd3c7" stroke="#000000" points="318.4358,-198 315.4358,-202 294.4358,-202 291.4358,-198 219.5642,-198 219.5642,-162 318.4358,-162 318.4358,-198"/>
<text text-anchor="middle" x="269" y="-175.8" font-family="Times,serif" font-size="14.00" fill="#000000">PlCoreModule</text>
</g>
<!-- PlCoreModule&#45;&gt;AppModule -->
<g id="edge3" class="edge">
<title>PlCoreModule&#45;&gt;AppModule</title>
<path fill="none" stroke="#000000" d="M269,-198.1061C269,-217.3391 269,-245 269,-245 269,-245 356.2954,-245 356.2954,-245"/>
<polygon fill="#000000" stroke="#000000" points="356.2955,-248.5001 366.2954,-245 356.2954,-241.5001 356.2955,-248.5001"/>
</g>
<!-- PlProgressComponent -->
<g id="node6" class="node">
<title>PlProgressComponent</title>
<polygon fill="#ffffb3" stroke="#000000" points="453.7134,-122 312.2866,-122 312.2866,-86 453.7134,-86 453.7134,-122"/>
<text text-anchor="middle" x="383" y="-99.8" font-family="Times,serif" font-size="14.00" fill="#000000">PlProgressComponent</text>
</g>
<!-- PlProgressComponent&#45;&gt;PlCoreModule -->
<g id="edge5" class="edge">
<title>PlProgressComponent&#45;&gt;PlCoreModule</title>
<path fill="none" stroke="#000000" d="M312.2913,-104C304.9173,-104 300.052,-104 300.052,-104 300.052,-104 300.052,-151.9891 300.052,-151.9891"/>
<polygon fill="#000000" stroke="#000000" points="296.5521,-151.989 300.052,-161.9891 303.5521,-151.9891 296.5521,-151.989"/>
</g>
<!-- PlAmbientModeLoaderService -->
<g id="node7" class="node">
<title>PlAmbientModeLoaderService</title>
<ellipse fill="#fdb462" stroke="#000000" cx="156" cy="-104" rx="131.9216" ry="18"/>
<text text-anchor="middle" x="156" y="-99.8" font-family="Times,serif" font-size="14.00" fill="#000000">PlAmbientModeLoaderService</text>
</g>
<!-- PlAmbientModeLoaderService&#45;&gt;PlCoreModule -->
<g id="edge6" class="edge">
<title>PlAmbientModeLoaderService&#45;&gt;PlCoreModule</title>
<path fill="none" stroke="#000000" d="M253.7466,-116.2107C253.7466,-116.2107 253.7466,-151.864 253.7466,-151.864"/>
<polygon fill="#000000" stroke="#000000" points="250.2467,-151.864 253.7466,-161.864 257.2467,-151.864 250.2467,-151.864"/>
</g>
</g>
</svg>
