<?xml version="1.0" encoding="UTF-8" standalone="no"?>
<!DOCTYPE svg PUBLIC "-//W3C//DTD SVG 1.1//EN"
 "http://www.w3.org/Graphics/SVG/1.1/DTD/svg11.dtd">
<!-- Generated by graphviz version 2.40.1 (20161225.0304)
 -->
<!-- Title: dependencies Pages: 1 -->
<svg width="794pt" height="360pt"
 viewBox="0.00 0.00 794.00 360.00" xmlns="http://www.w3.org/2000/svg" xmlns:xlink="http://www.w3.org/1999/xlink">
<g id="graph0" class="graph" transform="scale(1 1) rotate(0) translate(4 356)">
<title>dependencies</title>
<polygon fill="#ffffff" stroke="transparent" points="-4,4 -4,-356 790,-356 790,4 -4,4"/>
<text text-anchor="start" x="372.0091" y="-42.4" font-family="sans-serif" font-weight="bold" font-size="14.00" fill="#000000">Legend</text>
<polygon fill="#ffffb3" stroke="transparent" points="159,-10 159,-30 179,-30 179,-10 159,-10"/>
<text text-anchor="start" x="182.629" y="-15.4" font-family="sans-serif" font-size="14.00" fill="#000000"> &#160;Declarations</text>
<polygon fill="#8dd3c7" stroke="transparent" points="272,-10 272,-30 292,-30 292,-10 272,-10"/>
<text text-anchor="start" x="295.7251" y="-15.4" font-family="sans-serif" font-size="14.00" fill="#000000"> &#160;Module</text>
<polygon fill="#80b1d3" stroke="transparent" points="358,-10 358,-30 378,-30 378,-10 358,-10"/>
<text text-anchor="start" x="381.7812" y="-15.4" font-family="sans-serif" font-size="14.00" fill="#000000"> &#160;Bootstrap</text>
<polygon fill="#fdb462" stroke="transparent" points="455,-10 455,-30 475,-30 475,-10 455,-10"/>
<text text-anchor="start" x="478.6732" y="-15.4" font-family="sans-serif" font-size="14.00" fill="#000000"> &#160;Providers</text>
<polygon fill="#fb8072" stroke="transparent" points="551,-10 551,-30 571,-30 571,-10 551,-10"/>
<text text-anchor="start" x="574.7258" y="-15.4" font-family="sans-serif" font-size="14.00" fill="#000000"> &#160;Exports</text>
<g id="clust1" class="cluster">
<title>cluster_AppModule</title>
<polygon fill="none" stroke="#000000" stroke-dasharray="1,5" points="369,-146 369,-344 778,-344 778,-146 369,-146"/>
</g>
<g id="clust2" class="cluster">
<title>cluster_AppModule_declarations</title>
<polygon fill="none" stroke="#000000" points="499,-154 499,-206 770,-206 770,-154 499,-154"/>
</g>
<g id="clust5" class="cluster">
<title>cluster_AppModule_imports</title>
<polygon fill="none" stroke="#000000" points="377,-154 377,-206 491,-206 491,-154 377,-154"/>
</g>
<g id="clust7" class="cluster">
<title>cluster_AppModule_bootstrap</title>
<polygon fill="none" stroke="#000000" points="511,-284 511,-336 635,-336 635,-284 511,-284"/>
</g>
<g id="clust9" class="cluster">
<title>cluster_PlCoreModule</title>
<polygon fill="none" stroke="#000000" stroke-dasharray="1,5" points="8,-70 8,-138 748,-138 748,-70 8,-70"/>
</g>
<g id="clust10" class="cluster">
<title>cluster_PlCoreModule_declarations</title>
<polygon fill="none" stroke="#000000" points="582,-78 582,-130 740,-130 740,-78 582,-78"/>
</g>
<g id="clust15" class="cluster">
<title>cluster_PlCoreModule_providers</title>
<polygon fill="none" stroke="#000000" points="16,-78 16,-130 574,-130 574,-78 16,-78"/>
</g>
<!-- AppComponent -->
<g id="node1" class="node">
<title>AppComponent</title>
<polygon fill="#ffffb3" stroke="#000000" points="761.9399,-198 656.0601,-198 656.0601,-162 761.9399,-162 761.9399,-198"/>
<text text-anchor="middle" x="709" y="-175.8" font-family="Times,serif" font-size="14.00" fill="#000000">AppComponent</text>
</g>
<!-- AppModule -->
<g id="node3" class="node">
<title>AppModule</title>
<polygon fill="#8dd3c7" stroke="#000000" points="614.6571,-263 611.6571,-267 590.6571,-267 587.6571,-263 531.3429,-263 531.3429,-227 614.6571,-227 614.6571,-263"/>
<text text-anchor="middle" x="573" y="-240.8" font-family="Times,serif" font-size="14.00" fill="#000000">AppModule</text>
</g>
<!-- AppComponent&#45;&gt;AppModule -->
<g id="edge1" class="edge">
<title>AppComponent&#45;&gt;AppModule</title>
<path fill="none" stroke="#000000" d="M709,-198.1061C709,-217.3391 709,-245 709,-245 709,-245 624.9142,-245 624.9142,-245"/>
<polygon fill="#000000" stroke="#000000" points="624.9142,-241.5001 614.9142,-245 624.9142,-248.5001 624.9142,-241.5001"/>
</g>
<!-- ExampleComponent -->
<g id="node2" class="node">
<title>ExampleComponent</title>
<polygon fill="#ffffb3" stroke="#000000" points="638.5954,-198 507.4046,-198 507.4046,-162 638.5954,-162 638.5954,-198"/>
<text text-anchor="middle" x="573" y="-175.8" font-family="Times,serif" font-size="14.00" fill="#000000">ExampleComponent</text>
</g>
<!-- ExampleComponent&#45;&gt;AppModule -->
<g id="edge2" class="edge">
<title>ExampleComponent&#45;&gt;AppModule</title>
<path fill="none" stroke="#000000" d="M573,-198.1061C573,-198.1061 573,-216.991 573,-216.991"/>
<polygon fill="#000000" stroke="#000000" points="569.5001,-216.9909 573,-226.991 576.5001,-216.991 569.5001,-216.9909"/>
</g>
<!-- AppComponent  -->
<g id="node5" class="node">
<title>AppComponent </title>
<polygon fill="#80b1d3" stroke="#000000" points="627.439,-328 518.561,-328 518.561,-292 627.439,-292 627.439,-328"/>
<text text-anchor="middle" x="573" y="-305.8" font-family="Times,serif" font-size="14.00" fill="#000000">AppComponent </text>
</g>
<!-- AppModule&#45;&gt;AppComponent  -->
<g id="edge4" class="edge">
<title>AppModule&#45;&gt;AppComponent </title>
<path fill="none" stroke="#000000" stroke-dasharray="1,5" d="M573,-263.1061C573,-263.1061 573,-281.991 573,-281.991"/>
<polygon fill="#000000" stroke="#000000" points="569.5001,-281.9909 573,-291.991 576.5001,-281.991 569.5001,-281.9909"/>
</g>
<!-- PlCoreModule -->
<g id="node4" class="node">
<title>PlCoreModule</title>
<polygon fill="#8dd3c7" stroke="#000000" points="483.4358,-198 480.4358,-202 459.4358,-202 456.4358,-198 384.5642,-198 384.5642,-162 483.4358,-162 483.4358,-198"/>
<text text-anchor="middle" x="434" y="-175.8" font-family="Times,serif" font-size="14.00" fill="#000000">PlCoreModule</text>
</g>
<!-- PlCoreModule&#45;&gt;AppModule -->
<g id="edge3" class="edge">
<title>PlCoreModule&#45;&gt;AppModule</title>
<path fill="none" stroke="#000000" d="M434,-198.1061C434,-217.3391 434,-245 434,-245 434,-245 521.2954,-245 521.2954,-245"/>
<polygon fill="#000000" stroke="#000000" points="521.2955,-248.5001 531.2954,-245 521.2954,-241.5001 521.2955,-248.5001"/>
</g>
<!-- PlProgressComponent -->
<g id="node6" class="node">
<title>PlProgressComponent</title>
<polygon fill="#ffffb3" stroke="#000000" points="731.7134,-122 590.2866,-122 590.2866,-86 731.7134,-86 731.7134,-122"/>
<text text-anchor="middle" x="661" y="-99.8" font-family="Times,serif" font-size="14.00" fill="#000000">PlProgressComponent</text>
</g>
<!-- PlProgressComponent&#45;&gt;PlCoreModule -->
<g id="edge5" class="edge">
<title>PlProgressComponent&#45;&gt;PlCoreModule</title>
<path fill="none" stroke="#000000" d="M614.4706,-122.1097C614.4706,-131.897 614.4706,-142 614.4706,-142 614.4706,-142 450.4058,-142 450.4058,-142 450.4058,-142 450.4058,-151.8903 450.4058,-151.8903"/>
<polygon fill="#000000" stroke="#000000" points="446.9059,-151.8903 450.4058,-161.8903 453.9059,-151.8904 446.9059,-151.8903"/>
</g>
<!-- PlAmbientModeLoaderService -->
<g id="node7" class="node">
<title>PlAmbientModeLoaderService</title>
<ellipse fill="#fdb462" stroke="#000000" cx="434" cy="-104" rx="131.9216" ry="18"/>
<text text-anchor="middle" x="434" y="-99.8" font-family="Times,serif" font-size="14.00" fill="#000000">PlAmbientModeLoaderService</text>
</g>
<!-- PlAmbientModeLoaderService&#45;&gt;PlCoreModule -->
<g id="edge6" class="edge">
<title>PlAmbientModeLoaderService&#45;&gt;PlCoreModule</title>
<path fill="none" stroke="#000000" d="M417.5942,-122.0109C417.5942,-122.0109 417.5942,-151.855 417.5942,-151.855"/>
<polygon fill="#000000" stroke="#000000" points="414.0943,-151.8549 417.5942,-161.855 421.0943,-151.855 414.0943,-151.8549"/>
</g>
<!-- PlHttpInterceptorMockService -->
<g id="node8" class="node">
<title>PlHttpInterceptorMockService</title>
<ellipse fill="#fdb462" stroke="#000000" cx="154" cy="-104" rx="130.1921" ry="18"/>
<text text-anchor="middle" x="154" y="-99.8" font-family="Times,serif" font-size="14.00" fill="#000000">PlHttpInterceptorMockService</text>
</g>
<!-- PlHttpInterceptorMockService&#45;&gt;PlCoreModule -->
<g id="edge7" class="edge">
<title>PlHttpInterceptorMockService&#45;&gt;PlCoreModule</title>
<path fill="none" stroke="#000000" d="M154,-122.0109C154,-144.4852 154,-180 154,-180 154,-180 374.5862,-180 374.5862,-180"/>
<polygon fill="#000000" stroke="#000000" points="374.5862,-183.5001 384.5862,-180 374.5861,-176.5001 374.5862,-183.5001"/>
</g>
</g>
</svg>
