<?xml version="1.0" encoding="UTF-8" standalone="no"?>
<!DOCTYPE svg PUBLIC "-//W3C//DTD SVG 1.1//EN"
 "http://www.w3.org/Graphics/SVG/1.1/DTD/svg11.dtd">
<!-- Generated by graphviz version 2.40.1 (20161225.0304)
 -->
<!-- Title: dependencies Pages: 1 -->
<svg width="504pt" height="284pt"
 viewBox="0.00 0.00 504.00 284.00" xmlns="http://www.w3.org/2000/svg" xmlns:xlink="http://www.w3.org/1999/xlink">
<g id="graph0" class="graph" transform="scale(1 1) rotate(0) translate(4 280)">
<title>dependencies</title>
<polygon fill="#ffffff" stroke="transparent" points="-4,4 -4,-280 500,-280 500,4 -4,4"/>
<text text-anchor="start" x="227.0091" y="-42.4" font-family="sans-serif" font-weight="bold" font-size="14.00" fill="#000000">Legend</text>
<polygon fill="#ffffb3" stroke="transparent" points="14,-10 14,-30 34,-30 34,-10 14,-10"/>
<text text-anchor="start" x="37.629" y="-15.4" font-family="sans-serif" font-size="14.00" fill="#000000"> &#160;Declarations</text>
<polygon fill="#8dd3c7" stroke="transparent" points="127,-10 127,-30 147,-30 147,-10 127,-10"/>
<text text-anchor="start" x="150.7251" y="-15.4" font-family="sans-serif" font-size="14.00" fill="#000000"> &#160;Module</text>
<polygon fill="#80b1d3" stroke="transparent" points="213,-10 213,-30 233,-30 233,-10 213,-10"/>
<text text-anchor="start" x="236.7812" y="-15.4" font-family="sans-serif" font-size="14.00" fill="#000000"> &#160;Bootstrap</text>
<polygon fill="#fdb462" stroke="transparent" points="310,-10 310,-30 330,-30 330,-10 310,-10"/>
<text text-anchor="start" x="333.6732" y="-15.4" font-family="sans-serif" font-size="14.00" fill="#000000"> &#160;Providers</text>
<polygon fill="#fb8072" stroke="transparent" points="406,-10 406,-30 426,-30 426,-10 406,-10"/>
<text text-anchor="start" x="429.7258" y="-15.4" font-family="sans-serif" font-size="14.00" fill="#000000"> &#160;Exports</text>
<g id="clust1" class="cluster">
<title>cluster_AppModule</title>
<polygon fill="none" stroke="#000000" stroke-dasharray="1,5" points="43.5,-70 43.5,-268 452.5,-268 452.5,-70 43.5,-70"/>
</g>
<g id="clust2" class="cluster">
<title>cluster_AppModule_declarations</title>
<polygon fill="none" stroke="#000000" points="173.5,-78 173.5,-130 444.5,-130 444.5,-78 173.5,-78"/>
</g>
<g id="clust5" class="cluster">
<title>cluster_AppModule_imports</title>
<polygon fill="none" stroke="#000000" points="51.5,-78 51.5,-130 165.5,-130 165.5,-78 51.5,-78"/>
</g>
<g id="clust7" class="cluster">
<title>cluster_AppModule_bootstrap</title>
<polygon fill="none" stroke="#000000" points="185.5,-208 185.5,-260 309.5,-260 309.5,-208 185.5,-208"/>
</g>
<!-- AppComponent -->
<g id="node1" class="node">
<title>AppComponent</title>
<polygon fill="#ffffb3" stroke="#000000" points="436.4399,-122 330.5601,-122 330.5601,-86 436.4399,-86 436.4399,-122"/>
<text text-anchor="middle" x="383.5" y="-99.8" font-family="Times,serif" font-size="14.00" fill="#000000">AppComponent</text>
</g>
<!-- AppModule -->
<g id="node3" class="node">
<title>AppModule</title>
<polygon fill="#8dd3c7" stroke="#000000" points="289.1571,-187 286.1571,-191 265.1571,-191 262.1571,-187 205.8429,-187 205.8429,-151 289.1571,-151 289.1571,-187"/>
<text text-anchor="middle" x="247.5" y="-164.8" font-family="Times,serif" font-size="14.00" fill="#000000">AppModule</text>
</g>
<!-- AppComponent&#45;&gt;AppModule -->
<g id="edge1" class="edge">
<title>AppComponent&#45;&gt;AppModule</title>
<path fill="none" stroke="#000000" d="M383.5,-122.1061C383.5,-141.3391 383.5,-169 383.5,-169 383.5,-169 299.4142,-169 299.4142,-169"/>
<polygon fill="#000000" stroke="#000000" points="299.4142,-165.5001 289.4142,-169 299.4142,-172.5001 299.4142,-165.5001"/>
</g>
<!-- ExampleComponent -->
<g id="node2" class="node">
<title>ExampleComponent</title>
<polygon fill="#ffffb3" stroke="#000000" points="313.0954,-122 181.9046,-122 181.9046,-86 313.0954,-86 313.0954,-122"/>
<text text-anchor="middle" x="247.5" y="-99.8" font-family="Times,serif" font-size="14.00" fill="#000000">ExampleComponent</text>
</g>
<!-- ExampleComponent&#45;&gt;AppModule -->
<g id="edge2" class="edge">
<title>ExampleComponent&#45;&gt;AppModule</title>
<path fill="none" stroke="#000000" d="M247.5,-122.1061C247.5,-122.1061 247.5,-140.991 247.5,-140.991"/>
<polygon fill="#000000" stroke="#000000" points="244.0001,-140.9909 247.5,-150.991 251.0001,-140.991 244.0001,-140.9909"/>
</g>
<!-- AppComponent  -->
<g id="node5" class="node">
<title>AppComponent </title>
<polygon fill="#80b1d3" stroke="#000000" points="301.939,-252 193.061,-252 193.061,-216 301.939,-216 301.939,-252"/>
<text text-anchor="middle" x="247.5" y="-229.8" font-family="Times,serif" font-size="14.00" fill="#000000">AppComponent </text>
</g>
<!-- AppModule&#45;&gt;AppComponent  -->
<g id="edge4" class="edge">
<title>AppModule&#45;&gt;AppComponent </title>
<path fill="none" stroke="#000000" stroke-dasharray="1,5" d="M247.5,-187.1061C247.5,-187.1061 247.5,-205.991 247.5,-205.991"/>
<polygon fill="#000000" stroke="#000000" points="244.0001,-205.9909 247.5,-215.991 251.0001,-205.991 244.0001,-205.9909"/>
</g>
<!-- PlCoreModule -->
<g id="node4" class="node">
<title>PlCoreModule</title>
<polygon fill="#8dd3c7" stroke="#000000" points="157.9358,-122 154.9358,-126 133.9358,-126 130.9358,-122 59.0642,-122 59.0642,-86 157.9358,-86 157.9358,-122"/>
<text text-anchor="middle" x="108.5" y="-99.8" font-family="Times,serif" font-size="14.00" fill="#000000">PlCoreModule</text>
</g>
<!-- PlCoreModule&#45;&gt;AppModule -->
<g id="edge3" class="edge">
<title>PlCoreModule&#45;&gt;AppModule</title>
<path fill="none" stroke="#000000" d="M108.5,-122.1061C108.5,-141.3391 108.5,-169 108.5,-169 108.5,-169 195.7954,-169 195.7954,-169"/>
<polygon fill="#000000" stroke="#000000" points="195.7955,-172.5001 205.7954,-169 195.7954,-165.5001 195.7955,-172.5001"/>
</g>
</g>
</svg>
