<?xml version="1.0" encoding="UTF-8" standalone="no"?>
<!DOCTYPE svg PUBLIC "-//W3C//DTD SVG 1.1//EN"
 "http://www.w3.org/Graphics/SVG/1.1/DTD/svg11.dtd">
<!-- Generated by graphviz version 2.46.0 (20210119.1425)
 -->
<!-- Title: dependencies Pages: 1 -->
<svg width="504pt" height="276pt"
 viewBox="0.00 0.00 504.00 276.00" xmlns="http://www.w3.org/2000/svg" xmlns:xlink="http://www.w3.org/1999/xlink">
<g id="graph0" class="graph" transform="scale(1 1) rotate(0) translate(4 272)">
<title>dependencies</title>
<polygon fill="white" stroke="transparent" points="-4,4 -4,-272 500,-272 500,4 -4,4"/>
<text text-anchor="start" x="227.01" y="-42.4" font-family="sans-serif" font-weight="bold" font-size="14.00">Legend</text>
<polygon fill="#ffffb3" stroke="transparent" points="14,-10 14,-30 34,-30 34,-10 14,-10"/>
<text text-anchor="start" x="37.63" y="-15.4" font-family="sans-serif" font-size="14.00"> &#160;Declarations</text>
<polygon fill="#8dd3c7" stroke="transparent" points="127,-10 127,-30 147,-30 147,-10 127,-10"/>
<text text-anchor="start" x="150.73" y="-15.4" font-family="sans-serif" font-size="14.00"> &#160;Module</text>
<polygon fill="#80b1d3" stroke="transparent" points="213,-10 213,-30 233,-30 233,-10 213,-10"/>
<text text-anchor="start" x="236.78" y="-15.4" font-family="sans-serif" font-size="14.00"> &#160;Bootstrap</text>
<polygon fill="#fdb462" stroke="transparent" points="310,-10 310,-30 330,-30 330,-10 310,-10"/>
<text text-anchor="start" x="333.67" y="-15.4" font-family="sans-serif" font-size="14.00"> &#160;Providers</text>
<polygon fill="#fb8072" stroke="transparent" points="406,-10 406,-30 426,-30 426,-10 406,-10"/>
<text text-anchor="start" x="429.73" y="-15.4" font-family="sans-serif" font-size="14.00"> &#160;Exports</text>
<g id="clust1" class="cluster">
<title>cluster_HomeModule</title>
<polygon fill="none" stroke="black" stroke-dasharray="1,5" points="34.5,-70 34.5,-260 461.5,-260 461.5,-70 34.5,-70"/>
</g>
<g id="clust2" class="cluster">
<title>cluster_HomeModule_declarations</title>
<polygon fill="none" stroke="black" points="321.5,-143 321.5,-195 453.5,-195 453.5,-143 321.5,-143"/>
</g>
<g id="clust3" class="cluster">
<title>cluster_HomeModule_HomeComponent_providers</title>
<polygon fill="none" stroke="black" points="309.5,-78 309.5,-130 453.5,-130 453.5,-78 309.5,-78"/>
</g>
<g id="clust4" class="cluster">
<title>cluster_HomeModule_imports</title>
<polygon fill="none" stroke="black" points="42.5,-143 42.5,-195 313.5,-195 313.5,-143 42.5,-143"/>
</g>
<!-- HomeComponent -->
<g id="node1" class="node">
<title>HomeComponent</title>
<polygon fill="#ffffb3" stroke="black" points="445.05,-187 329.95,-187 329.95,-151 445.05,-151 445.05,-187"/>
<text text-anchor="middle" x="387.5" y="-164.8" font-family="Times,serif" font-size="14.00">HomeComponent</text>
</g>
<!-- HomeModule -->
<g id="node2" class="node">
<title>HomeModule</title>
<polygon fill="#8dd3c7" stroke="black" points="283.26,-252 280.26,-256 259.26,-256 256.26,-252 189.74,-252 189.74,-216 283.26,-216 283.26,-252"/>
<text text-anchor="middle" x="236.5" y="-229.8" font-family="Times,serif" font-size="14.00">HomeModule</text>
</g>
<!-- HomeComponent&#45;&gt;HomeModule -->
<g id="edge1" class="edge">
<title>HomeComponent&#45;&gt;HomeModule</title>
<path fill="none" stroke="black" d="M387.5,-187.11C387.5,-206.34 387.5,-234 387.5,-234 387.5,-234 293.45,-234 293.45,-234"/>
<polygon fill="black" stroke="black" points="293.45,-230.5 283.45,-234 293.45,-237.5 293.45,-230.5"/>
</g>
<!-- HomeService -->
<g id="node3" class="node">
<title>HomeService</title>
<ellipse fill="#fdb462" stroke="black" cx="381.5" cy="-104" rx="63.68" ry="18"/>
<text text-anchor="middle" x="381.5" y="-99.8" font-family="Times,serif" font-size="14.00">HomeService</text>
</g>
<!-- HomeService&#45;&gt;HomeComponent -->
<g id="edge2" class="edge">
<title>HomeService&#45;&gt;HomeComponent</title>
<path fill="none" stroke="black" d="M387.41,-122.11C387.41,-122.11 387.41,-140.99 387.41,-140.99"/>
<polygon fill="black" stroke="black" points="383.91,-140.99 387.41,-150.99 390.91,-140.99 383.91,-140.99"/>
</g>
<!-- HomeRoutingModule -->
<g id="node4" class="node">
<title>HomeRoutingModule</title>
<polygon fill="#8dd3c7" stroke="black" points="305.88,-187 302.88,-191 281.88,-191 278.88,-187 167.12,-187 167.12,-151 305.88,-151 305.88,-187"/>
<text text-anchor="middle" x="236.5" y="-164.8" font-family="Times,serif" font-size="14.00">HomeRoutingModule</text>
</g>
<!-- HomeRoutingModule&#45;&gt;HomeModule -->
<g id="edge3" class="edge">
<title>HomeRoutingModule&#45;&gt;HomeModule</title>
<path fill="none" stroke="black" d="M236.5,-187.11C236.5,-187.11 236.5,-205.99 236.5,-205.99"/>
<polygon fill="black" stroke="black" points="233,-205.99 236.5,-215.99 240,-205.99 233,-205.99"/>
</g>
<!-- SharedModule -->
<g id="node5" class="node">
<title>SharedModule</title>
<polygon fill="#8dd3c7" stroke="black" points="148.92,-187 145.92,-191 124.92,-191 121.92,-187 50.08,-187 50.08,-151 148.92,-151 148.92,-187"/>
<text text-anchor="middle" x="99.5" y="-164.8" font-family="Times,serif" font-size="14.00">SharedModule</text>
</g>
<!-- SharedModule&#45;&gt;HomeModule -->
<g id="edge4" class="edge">
<title>SharedModule&#45;&gt;HomeModule</title>
<path fill="none" stroke="black" d="M99.5,-187.11C99.5,-206.34 99.5,-234 99.5,-234 99.5,-234 179.74,-234 179.74,-234"/>
<polygon fill="black" stroke="black" points="179.74,-237.5 189.74,-234 179.74,-230.5 179.74,-237.5"/>
</g>
</g>
</svg>
