<?xml version="1.0" encoding="UTF-8" standalone="no"?>
<!DOCTYPE svg PUBLIC "-//W3C//DTD SVG 1.1//EN"
 "http://www.w3.org/Graphics/SVG/1.1/DTD/svg11.dtd">
<!-- Generated by graphviz version 2.46.0 (20210119.1425)
 -->
<!-- Title: dependencies Pages: 1 -->
<svg width="1170pt" height="360pt"
 viewBox="0.00 0.00 1170.00 360.00" xmlns="http://www.w3.org/2000/svg" xmlns:xlink="http://www.w3.org/1999/xlink">
<g id="graph0" class="graph" transform="scale(1 1) rotate(0) translate(4 356)">
<title>dependencies</title>
<polygon fill="white" stroke="transparent" points="-4,4 -4,-356 1166,-356 1166,4 -4,4"/>
<text text-anchor="start" x="560.01" y="-42.4" font-family="sans-serif" font-weight="bold" font-size="14.00">Legend</text>
<polygon fill="#ffffb3" stroke="transparent" points="347,-10 347,-30 367,-30 367,-10 347,-10"/>
<text text-anchor="start" x="370.63" y="-15.4" font-family="sans-serif" font-size="14.00"> &#160;Declarations</text>
<polygon fill="#8dd3c7" stroke="transparent" points="460,-10 460,-30 480,-30 480,-10 460,-10"/>
<text text-anchor="start" x="483.73" y="-15.4" font-family="sans-serif" font-size="14.00"> &#160;Module</text>
<polygon fill="#80b1d3" stroke="transparent" points="546,-10 546,-30 566,-30 566,-10 546,-10"/>
<text text-anchor="start" x="569.78" y="-15.4" font-family="sans-serif" font-size="14.00"> &#160;Bootstrap</text>
<polygon fill="#fdb462" stroke="transparent" points="643,-10 643,-30 663,-30 663,-10 643,-10"/>
<text text-anchor="start" x="666.67" y="-15.4" font-family="sans-serif" font-size="14.00"> &#160;Providers</text>
<polygon fill="#fb8072" stroke="transparent" points="739,-10 739,-30 759,-30 759,-10 739,-10"/>
<text text-anchor="start" x="762.73" y="-15.4" font-family="sans-serif" font-size="14.00"> &#160;Exports</text>
<g id="clust1" class="cluster">
<title>cluster_AppModule</title>
<polygon fill="none" stroke="black" stroke-dasharray="1,5" points="528,-146 528,-344 1066,-344 1066,-146 528,-146"/>
</g>
<g id="clust2" class="cluster">
<title>cluster_AppModule_declarations</title>
<polygon fill="none" stroke="black" points="936,-154 936,-206 1058,-206 1058,-154 936,-154"/>
</g>
<g id="clust4" class="cluster">
<title>cluster_AppModule_imports</title>
<polygon fill="none" stroke="black" points="536,-154 536,-206 928,-206 928,-154 536,-154"/>
</g>
<g id="clust6" class="cluster">
<title>cluster_AppModule_bootstrap</title>
<polygon fill="none" stroke="black" points="724,-284 724,-336 848,-336 848,-284 724,-284"/>
</g>
<g id="clust14" class="cluster">
<title>cluster_HomeModule</title>
<polygon fill="none" stroke="black" stroke-dasharray="1,5" points="8,-70 8,-271 318,-271 318,-70 8,-70"/>
</g>
<g id="clust15" class="cluster">
<title>cluster_HomeModule_declarations</title>
<polygon fill="none" stroke="black" points="178,-154 178,-206 310,-206 310,-154 178,-154"/>
</g>
<g id="clust16" class="cluster">
<title>cluster_HomeModule_HomeComponent_providers</title>
<polygon fill="none" stroke="black" points="166,-78 166,-130 310,-130 310,-78 166,-78"/>
</g>
<g id="clust17" class="cluster">
<title>cluster_HomeModule_imports</title>
<polygon fill="none" stroke="black" points="16,-154 16,-206 170,-206 170,-154 16,-154"/>
</g>
<g id="clust27" class="cluster">
<title>cluster_InitializerModule</title>
<polygon fill="none" stroke="black" stroke-dasharray="1,5" points="922,-70 922,-138 1154,-138 1154,-70 922,-70"/>
</g>
<g id="clust32" class="cluster">
<title>cluster_InitializerModule_providers</title>
<polygon fill="none" stroke="black" points="930,-78 930,-130 1146,-130 1146,-78 930,-78"/>
</g>
<g id="clust33" class="cluster">
<title>cluster_SharedModule</title>
<polygon fill="none" stroke="black" stroke-dasharray="1,5" points="326,-70 326,-138 914,-138 914,-70 326,-70"/>
</g>
<g id="clust34" class="cluster">
<title>cluster_SharedModule_declarations</title>
<polygon fill="none" stroke="black" points="704,-78 704,-130 906,-130 906,-78 704,-78"/>
</g>
<g id="clust37" class="cluster">
<title>cluster_SharedModule_exports</title>
<polygon fill="none" stroke="black" points="490,-78 490,-130 696,-130 696,-78 490,-78"/>
</g>
<g id="clust39" class="cluster">
<title>cluster_SharedModule_providers</title>
<polygon fill="none" stroke="black" points="334,-78 334,-130 482,-130 482,-78 334,-78"/>
</g>
<!-- AppComponent -->
<g id="node1" class="node">
<title>AppComponent</title>
<polygon fill="#ffffb3" stroke="black" points="1049.94,-198 944.06,-198 944.06,-162 1049.94,-162 1049.94,-198"/>
<text text-anchor="middle" x="997" y="-175.8" font-family="Times,serif" font-size="14.00">AppComponent</text>
</g>
<!-- AppModule -->
<g id="node2" class="node">
<title>AppModule</title>
<polygon fill="#8dd3c7" stroke="black" points="827.66,-263 824.66,-267 803.66,-267 800.66,-263 744.34,-263 744.34,-227 827.66,-227 827.66,-263"/>
<text text-anchor="middle" x="786" y="-240.8" font-family="Times,serif" font-size="14.00">AppModule</text>
</g>
<!-- AppComponent&#45;&gt;AppModule -->
<g id="edge1" class="edge">
<title>AppComponent&#45;&gt;AppModule</title>
<path fill="none" stroke="black" d="M997,-198.11C997,-217.34 997,-245 997,-245 997,-245 837.69,-245 837.69,-245"/>
<polygon fill="black" stroke="black" points="837.69,-241.5 827.69,-245 837.69,-248.5 837.69,-241.5"/>
</g>
<!-- AppComponent  -->
<g id="node6" class="node">
<title>AppComponent </title>
<polygon fill="#80b1d3" stroke="black" points="840.44,-328 731.56,-328 731.56,-292 840.44,-292 840.44,-328"/>
<text text-anchor="middle" x="786" y="-305.8" font-family="Times,serif" font-size="14.00">AppComponent </text>
</g>
<!-- AppModule&#45;&gt;AppComponent  -->
<g id="edge5" class="edge">
<title>AppModule&#45;&gt;AppComponent </title>
<path fill="none" stroke="black" stroke-dasharray="1,5" d="M786,-263.11C786,-263.11 786,-281.99 786,-281.99"/>
<polygon fill="black" stroke="black" points="782.5,-281.99 786,-291.99 789.5,-281.99 782.5,-281.99"/>
</g>
<!-- AppRoutingModule -->
<g id="node3" class="node">
<title>AppRoutingModule</title>
<polygon fill="#8dd3c7" stroke="black" points="920.27,-198 917.27,-202 896.27,-202 893.27,-198 791.73,-198 791.73,-162 920.27,-162 920.27,-198"/>
<text text-anchor="middle" x="856" y="-175.8" font-family="Times,serif" font-size="14.00">AppRoutingModule</text>
</g>
<!-- AppRoutingModule&#45;&gt;AppModule -->
<g id="edge2" class="edge">
<title>AppRoutingModule&#45;&gt;AppModule</title>
<path fill="none" stroke="black" d="M809.72,-198.11C809.72,-198.11 809.72,-216.99 809.72,-216.99"/>
<polygon fill="black" stroke="black" points="806.22,-216.99 809.72,-226.99 813.22,-216.99 806.22,-216.99"/>
</g>
<!-- InitializerModule -->
<g id="node4" class="node">
<title>InitializerModule</title>
<polygon fill="#8dd3c7" stroke="black" points="773.97,-198 770.97,-202 749.97,-202 746.97,-198 660.03,-198 660.03,-162 773.97,-162 773.97,-198"/>
<text text-anchor="middle" x="717" y="-175.8" font-family="Times,serif" font-size="14.00">InitializerModule</text>
</g>
<!-- InitializerModule&#45;&gt;AppModule -->
<g id="edge3" class="edge">
<title>InitializerModule&#45;&gt;AppModule</title>
<path fill="none" stroke="black" d="M759.08,-198.11C759.08,-198.11 759.08,-216.99 759.08,-216.99"/>
<polygon fill="black" stroke="black" points="755.58,-216.99 759.08,-226.99 762.58,-216.99 755.58,-216.99"/>
</g>
<!-- SharedModule -->
<g id="node5" class="node">
<title>SharedModule</title>
<polygon fill="#8dd3c7" stroke="black" points="642.42,-198 639.42,-202 618.42,-202 615.42,-198 543.58,-198 543.58,-162 642.42,-162 642.42,-198"/>
<text text-anchor="middle" x="593" y="-175.8" font-family="Times,serif" font-size="14.00">SharedModule</text>
</g>
<!-- SharedModule&#45;&gt;AppModule -->
<g id="edge4" class="edge">
<title>SharedModule&#45;&gt;AppModule</title>
<path fill="none" stroke="black" d="M609.4,-198.28C609.4,-219.32 609.4,-251 609.4,-251 609.4,-251 734.15,-251 734.15,-251"/>
<polygon fill="black" stroke="black" points="734.15,-254.5 744.15,-251 734.15,-247.5 734.15,-254.5"/>
</g>
<!-- HomeModule -->
<g id="node8" class="node">
<title>HomeModule</title>
<polygon fill="#8dd3c7" stroke="black" points="290.76,-263 287.76,-267 266.76,-267 263.76,-263 197.24,-263 197.24,-227 290.76,-227 290.76,-263"/>
<text text-anchor="middle" x="244" y="-240.8" font-family="Times,serif" font-size="14.00">HomeModule</text>
</g>
<!-- SharedModule&#45;&gt;HomeModule -->
<g id="edge9" class="edge">
<title>SharedModule&#45;&gt;HomeModule</title>
<path fill="none" stroke="black" d="M576.6,-198.02C576.6,-215.37 576.6,-239 576.6,-239 576.6,-239 300.95,-239 300.95,-239"/>
<polygon fill="black" stroke="black" points="300.95,-235.5 290.95,-239 300.95,-242.5 300.95,-235.5"/>
</g>
<!-- HttpGraphicSpeedComponent  -->
<g id="node13" class="node">
<title>HttpGraphicSpeedComponent </title>
<polygon fill="#fb8072" stroke="black" points="687.52,-122 498.48,-122 498.48,-86 687.52,-86 687.52,-122"/>
<text text-anchor="middle" x="593" y="-99.8" font-family="Times,serif" font-size="14.00">HttpGraphicSpeedComponent </text>
</g>
<!-- SharedModule&#45;&gt;HttpGraphicSpeedComponent  -->
<g id="edge12" class="edge">
<title>SharedModule&#45;&gt;HttpGraphicSpeedComponent </title>
<path fill="none" stroke="black" stroke-dasharray="5,2" d="M576.6,-161.99C576.6,-161.99 576.6,-132.15 576.6,-132.15"/>
<polygon fill="black" stroke="black" points="580.1,-132.15 576.6,-122.15 573.1,-132.15 580.1,-132.15"/>
</g>
<!-- HomeComponent -->
<g id="node7" class="node">
<title>HomeComponent</title>
<polygon fill="#ffffb3" stroke="black" points="301.55,-198 186.45,-198 186.45,-162 301.55,-162 301.55,-198"/>
<text text-anchor="middle" x="244" y="-175.8" font-family="Times,serif" font-size="14.00">HomeComponent</text>
</g>
<!-- HomeComponent&#45;&gt;HomeModule -->
<g id="edge6" class="edge">
<title>HomeComponent&#45;&gt;HomeModule</title>
<path fill="none" stroke="black" d="M244,-198.11C244,-198.11 244,-216.99 244,-216.99"/>
<polygon fill="black" stroke="black" points="240.5,-216.99 244,-226.99 247.5,-216.99 240.5,-216.99"/>
</g>
<!-- HomeService -->
<g id="node9" class="node">
<title>HomeService</title>
<ellipse fill="#fdb462" stroke="black" cx="238" cy="-104" rx="63.68" ry="18"/>
<text text-anchor="middle" x="238" y="-99.8" font-family="Times,serif" font-size="14.00">HomeService</text>
</g>
<!-- HomeService&#45;&gt;HomeComponent -->
<g id="edge7" class="edge">
<title>HomeService&#45;&gt;HomeComponent</title>
<path fill="none" stroke="black" d="M243.91,-122.01C243.91,-122.01 243.91,-151.85 243.91,-151.85"/>
<polygon fill="black" stroke="black" points="240.41,-151.85 243.91,-161.85 247.41,-151.85 240.41,-151.85"/>
</g>
<!-- HomeRoutingModule -->
<g id="node10" class="node">
<title>HomeRoutingModule</title>
<polygon fill="#8dd3c7" stroke="black" points="162.38,-198 159.38,-202 138.38,-202 135.38,-198 23.62,-198 23.62,-162 162.38,-162 162.38,-198"/>
<text text-anchor="middle" x="93" y="-175.8" font-family="Times,serif" font-size="14.00">HomeRoutingModule</text>
</g>
<!-- HomeRoutingModule&#45;&gt;HomeModule -->
<g id="edge8" class="edge">
<title>HomeRoutingModule&#45;&gt;HomeModule</title>
<path fill="none" stroke="black" d="M93,-198.11C93,-217.34 93,-245 93,-245 93,-245 187.05,-245 187.05,-245"/>
<polygon fill="black" stroke="black" points="187.05,-248.5 197.05,-245 187.05,-241.5 187.05,-248.5"/>
</g>
<!-- HttpInterceptorService -->
<g id="node11" class="node">
<title>HttpInterceptorService</title>
<ellipse fill="#fdb462" stroke="black" cx="1038" cy="-104" rx="99.53" ry="18"/>
<text text-anchor="middle" x="1038" y="-99.8" font-family="Times,serif" font-size="14.00">HttpInterceptorService</text>
</g>
<!-- HttpInterceptorService&#45;&gt;InitializerModule -->
<g id="edge10" class="edge">
<title>HttpInterceptorService&#45;&gt;InitializerModule</title>
<path fill="none" stroke="black" d="M997,-120.5C997,-133.34 997,-149 997,-149 997,-149 753.4,-149 753.4,-149 753.4,-149 753.4,-151.97 753.4,-151.97"/>
<polygon fill="black" stroke="black" points="749.9,-151.97 753.4,-161.97 756.9,-151.97 749.9,-151.97"/>
</g>
<!-- HttpGraphicSpeedComponent -->
<g id="node12" class="node">
<title>HttpGraphicSpeedComponent</title>
<polygon fill="#ffffb3" stroke="black" points="897.52,-122 712.48,-122 712.48,-86 897.52,-86 897.52,-122"/>
<text text-anchor="middle" x="805" y="-99.8" font-family="Times,serif" font-size="14.00">HttpGraphicSpeedComponent</text>
</g>
<!-- HttpGraphicSpeedComponent&#45;&gt;SharedModule -->
<g id="edge11" class="edge">
<title>HttpGraphicSpeedComponent&#45;&gt;SharedModule</title>
<path fill="none" stroke="black" d="M732.82,-122.24C732.82,-129.43 732.82,-136 732.82,-136 732.82,-136 609.4,-136 609.4,-136 609.4,-136 609.4,-151.85 609.4,-151.85"/>
<polygon fill="black" stroke="black" points="605.9,-151.85 609.4,-161.85 612.9,-151.85 605.9,-151.85"/>
</g>
<!-- GlobalService -->
<g id="node14" class="node">
<title>GlobalService</title>
<ellipse fill="#fdb462" stroke="black" cx="408" cy="-104" rx="66.05" ry="18"/>
<text text-anchor="middle" x="408" y="-99.8" font-family="Times,serif" font-size="14.00">GlobalService</text>
</g>
<!-- GlobalService&#45;&gt;SharedModule -->
<g id="edge13" class="edge">
<title>GlobalService&#45;&gt;SharedModule</title>
<path fill="none" stroke="black" d="M408,-122.01C408,-144.49 408,-180 408,-180 408,-180 533.42,-180 533.42,-180"/>
<polygon fill="black" stroke="black" points="533.42,-183.5 543.42,-180 533.42,-176.5 533.42,-183.5"/>
</g>
</g>
</svg>
