<?xml version="1.0" encoding="UTF-8" standalone="no"?>
<!DOCTYPE svg PUBLIC "-//W3C//DTD SVG 1.1//EN"
 "http://www.w3.org/Graphics/SVG/1.1/DTD/svg11.dtd">
<!-- Generated by graphviz version 2.44.1 (20200629.0846)
 -->
<!-- Title: dependencies Pages: 1 -->
<svg width="1170pt" height="287pt"
 viewBox="0.00 0.00 1170.00 287.00" xmlns="http://www.w3.org/2000/svg" xmlns:xlink="http://www.w3.org/1999/xlink">
<g id="graph0" class="graph" transform="scale(1 1) rotate(0) translate(4 283)">
<title>dependencies</title>
<polygon fill="white" stroke="transparent" points="-4,4 -4,-283 1166,-283 1166,4 -4,4"/>
<text text-anchor="start" x="560.01" y="-42.4" font-family="sans-serif" font-weight="bold" font-size="14.00">Legend</text>
<polygon fill="#ffffb3" stroke="transparent" points="347,-10 347,-30 367,-30 367,-10 347,-10"/>
<text text-anchor="start" x="370.63" y="-15.4" font-family="sans-serif" font-size="14.00"> &#160;Declarations</text>
<polygon fill="#8dd3c7" stroke="transparent" points="460,-10 460,-30 480,-30 480,-10 460,-10"/>
<text text-anchor="start" x="483.73" y="-15.4" font-family="sans-serif" font-size="14.00"> &#160;Module</text>
<polygon fill="#80b1d3" stroke="transparent" points="546,-10 546,-30 566,-30 566,-10 546,-10"/>
<text text-anchor="start" x="569.78" y="-15.4" font-family="sans-serif" font-size="14.00"> &#160;Bootstrap</text>
<polygon fill="#fdb462" stroke="transparent" points="643,-10 643,-30 663,-30 663,-10 643,-10"/>
<text text-anchor="start" x="666.67" y="-15.4" font-family="sans-serif" font-size="14.00"> &#160;Providers</text>
<polygon fill="#fb8072" stroke="transparent" points="739,-10 739,-30 759,-30 759,-10 739,-10"/>
<text text-anchor="start" x="762.73" y="-15.4" font-family="sans-serif" font-size="14.00"> &#160;Exports</text>
<g id="clust1" class="cluster">
<title>cluster_AppModule</title>
<polygon fill="none" stroke="black" stroke-dasharray="1,5" points="316,-146 316,-271 724,-271 724,-146 316,-146"/>
</g>
<g id="clust3" class="cluster">
<title>cluster_AppModule_imports</title>
<polygon fill="none" stroke="black" points="324,-154 324,-206 716,-206 716,-154 324,-154"/>
</g>
<g id="clust13" class="cluster">
<title>cluster_HomeModule</title>
<polygon fill="none" stroke="black" stroke-dasharray="1,5" points="844,-70 844,-271 1154,-271 1154,-70 844,-70"/>
</g>
<g id="clust14" class="cluster">
<title>cluster_HomeModule_declarations</title>
<polygon fill="none" stroke="black" points="1014,-154 1014,-206 1146,-206 1146,-154 1014,-154"/>
</g>
<g id="clust15" class="cluster">
<title>cluster_HomeModule_HomeComponent_providers</title>
<polygon fill="none" stroke="black" points="1002,-78 1002,-130 1146,-130 1146,-78 1002,-78"/>
</g>
<g id="clust16" class="cluster">
<title>cluster_HomeModule_imports</title>
<polygon fill="none" stroke="black" points="852,-154 852,-206 1006,-206 1006,-154 852,-154"/>
</g>
<g id="clust26" class="cluster">
<title>cluster_InitializerModule</title>
<polygon fill="none" stroke="black" stroke-dasharray="1,5" points="604,-70 604,-138 836,-138 836,-70 604,-70"/>
</g>
<g id="clust31" class="cluster">
<title>cluster_InitializerModule_providers</title>
<polygon fill="none" stroke="black" points="612,-78 612,-130 828,-130 828,-78 612,-78"/>
</g>
<g id="clust32" class="cluster">
<title>cluster_SharedModule</title>
<polygon fill="none" stroke="black" stroke-dasharray="1,5" points="8,-70 8,-138 596,-138 596,-70 8,-70"/>
</g>
<g id="clust33" class="cluster">
<title>cluster_SharedModule_declarations</title>
<polygon fill="none" stroke="black" points="386,-78 386,-130 588,-130 588,-78 386,-78"/>
</g>
<g id="clust36" class="cluster">
<title>cluster_SharedModule_exports</title>
<polygon fill="none" stroke="black" points="172,-78 172,-130 378,-130 378,-78 172,-78"/>
</g>
<g id="clust38" class="cluster">
<title>cluster_SharedModule_providers</title>
<polygon fill="none" stroke="black" points="16,-78 16,-130 164,-130 164,-78 16,-78"/>
</g>
<!-- AppRoutingModule -->
<g id="node1" class="node">
<title>AppRoutingModule</title>
<polygon fill="#8dd3c7" stroke="black" points="708.27,-198 705.27,-202 684.27,-202 681.27,-198 579.73,-198 579.73,-162 708.27,-162 708.27,-198"/>
<text text-anchor="middle" x="644" y="-175.8" font-family="Times,serif" font-size="14.00">AppRoutingModule</text>
</g>
<!-- AppModule -->
<g id="node4" class="node">
<title>AppModule</title>
<polygon fill="#8dd3c7" stroke="black" points="546.66,-263 543.66,-267 522.66,-267 519.66,-263 463.34,-263 463.34,-227 546.66,-227 546.66,-263"/>
<text text-anchor="middle" x="505" y="-240.8" font-family="Times,serif" font-size="14.00">AppModule</text>
</g>
<!-- AppRoutingModule&#45;&gt;AppModule -->
<g id="edge1" class="edge">
<title>AppRoutingModule&#45;&gt;AppModule</title>
<path fill="none" stroke="black" d="M644,-198.11C644,-217.34 644,-245 644,-245 644,-245 556.7,-245 556.7,-245"/>
<polygon fill="black" stroke="black" points="556.7,-241.5 546.7,-245 556.7,-248.5 556.7,-241.5"/>
</g>
<!-- InitializerModule -->
<g id="node2" class="node">
<title>InitializerModule</title>
<polygon fill="#8dd3c7" stroke="black" points="561.97,-198 558.97,-202 537.97,-202 534.97,-198 448.03,-198 448.03,-162 561.97,-162 561.97,-198"/>
<text text-anchor="middle" x="505" y="-175.8" font-family="Times,serif" font-size="14.00">InitializerModule</text>
</g>
<!-- InitializerModule&#45;&gt;AppModule -->
<g id="edge2" class="edge">
<title>InitializerModule&#45;&gt;AppModule</title>
<path fill="none" stroke="black" d="M505,-198.11C505,-198.11 505,-216.99 505,-216.99"/>
<polygon fill="black" stroke="black" points="501.5,-216.99 505,-226.99 508.5,-216.99 501.5,-216.99"/>
</g>
<!-- SharedModule -->
<g id="node3" class="node">
<title>SharedModule</title>
<polygon fill="#8dd3c7" stroke="black" points="430.42,-198 427.42,-202 406.42,-202 403.42,-198 331.58,-198 331.58,-162 430.42,-162 430.42,-198"/>
<text text-anchor="middle" x="381" y="-175.8" font-family="Times,serif" font-size="14.00">SharedModule</text>
</g>
<!-- SharedModule&#45;&gt;AppModule -->
<g id="edge3" class="edge">
<title>SharedModule&#45;&gt;AppModule</title>
<path fill="none" stroke="black" d="M381,-198.11C381,-217.34 381,-245 381,-245 381,-245 453.02,-245 453.02,-245"/>
<polygon fill="black" stroke="black" points="453.02,-248.5 463.02,-245 453.02,-241.5 453.02,-248.5"/>
</g>
<!-- HttpGraphicSpeedComponent  -->
<g id="node11" class="node">
<title>HttpGraphicSpeedComponent </title>
<polygon fill="#fb8072" stroke="black" points="369.52,-122 180.48,-122 180.48,-86 369.52,-86 369.52,-122"/>
<text text-anchor="middle" x="275" y="-99.8" font-family="Times,serif" font-size="14.00">HttpGraphicSpeedComponent </text>
</g>
<!-- SharedModule&#45;&gt;HttpGraphicSpeedComponent  -->
<g id="edge9" class="edge">
<title>SharedModule&#45;&gt;HttpGraphicSpeedComponent </title>
<path fill="none" stroke="black" stroke-dasharray="5,2" d="M350.65,-161.99C350.65,-161.99 350.65,-132.15 350.65,-132.15"/>
<polygon fill="black" stroke="black" points="354.15,-132.15 350.65,-122.15 347.15,-132.15 354.15,-132.15"/>
</g>
<!-- HomeComponent -->
<g id="node5" class="node">
<title>HomeComponent</title>
<polygon fill="#ffffb3" stroke="black" points="1137.55,-198 1022.45,-198 1022.45,-162 1137.55,-162 1137.55,-198"/>
<text text-anchor="middle" x="1080" y="-175.8" font-family="Times,serif" font-size="14.00">HomeComponent</text>
</g>
<!-- HomeModule -->
<g id="node6" class="node">
<title>HomeModule</title>
<polygon fill="#8dd3c7" stroke="black" points="1050.76,-263 1047.76,-267 1026.76,-267 1023.76,-263 957.24,-263 957.24,-227 1050.76,-227 1050.76,-263"/>
<text text-anchor="middle" x="1004" y="-240.8" font-family="Times,serif" font-size="14.00">HomeModule</text>
</g>
<!-- HomeComponent&#45;&gt;HomeModule -->
<g id="edge4" class="edge">
<title>HomeComponent&#45;&gt;HomeModule</title>
<path fill="none" stroke="black" d="M1036.55,-198.11C1036.55,-198.11 1036.55,-216.99 1036.55,-216.99"/>
<polygon fill="black" stroke="black" points="1033.05,-216.99 1036.55,-226.99 1040.05,-216.99 1033.05,-216.99"/>
</g>
<!-- HomeService -->
<g id="node7" class="node">
<title>HomeService</title>
<ellipse fill="#fdb462" stroke="black" cx="1074" cy="-104" rx="63.68" ry="18"/>
<text text-anchor="middle" x="1074" y="-99.8" font-family="Times,serif" font-size="14.00">HomeService</text>
</g>
<!-- HomeService&#45;&gt;HomeComponent -->
<g id="edge5" class="edge">
<title>HomeService&#45;&gt;HomeComponent</title>
<path fill="none" stroke="black" d="M1079.91,-122.01C1079.91,-122.01 1079.91,-151.85 1079.91,-151.85"/>
<polygon fill="black" stroke="black" points="1076.41,-151.85 1079.91,-161.85 1083.41,-151.85 1076.41,-151.85"/>
</g>
<!-- HomeRoutingModule -->
<g id="node8" class="node">
<title>HomeRoutingModule</title>
<polygon fill="#8dd3c7" stroke="black" points="998.38,-198 995.38,-202 974.38,-202 971.38,-198 859.62,-198 859.62,-162 998.38,-162 998.38,-198"/>
<text text-anchor="middle" x="929" y="-175.8" font-family="Times,serif" font-size="14.00">HomeRoutingModule</text>
</g>
<!-- HomeRoutingModule&#45;&gt;HomeModule -->
<g id="edge6" class="edge">
<title>HomeRoutingModule&#45;&gt;HomeModule</title>
<path fill="none" stroke="black" d="M977.78,-198.11C977.78,-198.11 977.78,-216.99 977.78,-216.99"/>
<polygon fill="black" stroke="black" points="974.28,-216.99 977.78,-226.99 981.28,-216.99 974.28,-216.99"/>
</g>
<!-- HttpInterceptorService -->
<g id="node9" class="node">
<title>HttpInterceptorService</title>
<ellipse fill="#fdb462" stroke="black" cx="720" cy="-104" rx="99.53" ry="18"/>
<text text-anchor="middle" x="720" y="-99.8" font-family="Times,serif" font-size="14.00">HttpInterceptorService</text>
</g>
<!-- HttpInterceptorService&#45;&gt;InitializerModule -->
<g id="edge7" class="edge">
<title>HttpInterceptorService&#45;&gt;InitializerModule</title>
<path fill="none" stroke="black" d="M664.44,-119.02C664.44,-129.64 664.44,-142 664.44,-142 664.44,-142 505,-142 505,-142 505,-142 505,-151.89 505,-151.89"/>
<polygon fill="black" stroke="black" points="501.5,-151.89 505,-161.89 508.5,-151.89 501.5,-151.89"/>
</g>
<!-- HttpGraphicSpeedComponent -->
<g id="node10" class="node">
<title>HttpGraphicSpeedComponent</title>
<polygon fill="#ffffb3" stroke="black" points="579.52,-122 394.48,-122 394.48,-86 579.52,-86 579.52,-122"/>
<text text-anchor="middle" x="487" y="-99.8" font-family="Times,serif" font-size="14.00">HttpGraphicSpeedComponent</text>
</g>
<!-- HttpGraphicSpeedComponent&#45;&gt;SharedModule -->
<g id="edge8" class="edge">
<title>HttpGraphicSpeedComponent&#45;&gt;SharedModule</title>
<path fill="none" stroke="black" d="M412.23,-122.01C412.23,-122.01 412.23,-151.85 412.23,-151.85"/>
<polygon fill="black" stroke="black" points="408.73,-151.85 412.23,-161.85 415.73,-151.85 408.73,-151.85"/>
</g>
<!-- GlobalService -->
<g id="node12" class="node">
<title>GlobalService</title>
<ellipse fill="#fdb462" stroke="black" cx="90" cy="-104" rx="66.05" ry="18"/>
<text text-anchor="middle" x="90" y="-99.8" font-family="Times,serif" font-size="14.00">GlobalService</text>
</g>
<!-- GlobalService&#45;&gt;SharedModule -->
<g id="edge10" class="edge">
<title>GlobalService&#45;&gt;SharedModule</title>
<path fill="none" stroke="black" d="M90,-122.01C90,-144.49 90,-180 90,-180 90,-180 321.64,-180 321.64,-180"/>
<polygon fill="black" stroke="black" points="321.64,-183.5 331.64,-180 321.64,-176.5 321.64,-183.5"/>
</g>
</g>
</svg>
