<?xml version="1.0" encoding="UTF-8" standalone="no"?>
<!DOCTYPE svg PUBLIC "-//W3C//DTD SVG 1.1//EN"
 "http://www.w3.org/Graphics/SVG/1.1/DTD/svg11.dtd">
<!-- Generated by graphviz version 2.40.1 (20161225.0304)
 -->
<!-- Title: dependencies Pages: 1 -->
<svg width="823pt" height="287pt"
 viewBox="0.00 0.00 823.00 287.00" xmlns="http://www.w3.org/2000/svg" xmlns:xlink="http://www.w3.org/1999/xlink">
<g id="graph0" class="graph" transform="scale(1 1) rotate(0) translate(4 283)">
<title>dependencies</title>
<polygon fill="#ffffff" stroke="transparent" points="-4,4 -4,-283 819,-283 819,4 -4,4"/>
<text text-anchor="start" x="386.5091" y="-42.4" font-family="sans-serif" font-weight="bold" font-size="14.00" fill="#000000">Legend</text>
<polygon fill="#ffffb3" stroke="transparent" points="173.5,-10 173.5,-30 193.5,-30 193.5,-10 173.5,-10"/>
<text text-anchor="start" x="197.129" y="-15.4" font-family="sans-serif" font-size="14.00" fill="#000000"> &#160;Declarations</text>
<polygon fill="#8dd3c7" stroke="transparent" points="286.5,-10 286.5,-30 306.5,-30 306.5,-10 286.5,-10"/>
<text text-anchor="start" x="310.2251" y="-15.4" font-family="sans-serif" font-size="14.00" fill="#000000"> &#160;Module</text>
<polygon fill="#80b1d3" stroke="transparent" points="372.5,-10 372.5,-30 392.5,-30 392.5,-10 372.5,-10"/>
<text text-anchor="start" x="396.2812" y="-15.4" font-family="sans-serif" font-size="14.00" fill="#000000"> &#160;Bootstrap</text>
<polygon fill="#fdb462" stroke="transparent" points="469.5,-10 469.5,-30 489.5,-30 489.5,-10 469.5,-10"/>
<text text-anchor="start" x="493.1732" y="-15.4" font-family="sans-serif" font-size="14.00" fill="#000000"> &#160;Providers</text>
<polygon fill="#fb8072" stroke="transparent" points="565.5,-10 565.5,-30 585.5,-30 585.5,-10 565.5,-10"/>
<text text-anchor="start" x="589.2258" y="-15.4" font-family="sans-serif" font-size="14.00" fill="#000000"> &#160;Exports</text>
<g id="clust1" class="cluster">
<title>cluster_AppModule</title>
<polygon fill="none" stroke="#000000" stroke-dasharray="1,5" points="8,-146 8,-271 417,-271 417,-146 8,-146"/>
</g>
<g id="clust3" class="cluster">
<title>cluster_AppModule_imports</title>
<polygon fill="none" stroke="#000000" points="16,-154 16,-206 409,-206 409,-154 16,-154"/>
</g>
<g id="clust7" class="cluster">
<title>cluster_AppRoutingModule</title>
<polygon fill="none" stroke="#000000" stroke-dasharray="1,5" points="103,-70 103,-138 249,-138 249,-70 103,-70"/>
</g>
<g id="clust9" class="cluster">
<title>cluster_AppRoutingModule_imports</title>
<polygon fill="none" stroke="#000000" points="111,-78 111,-130 241,-130 241,-78 111,-78"/>
</g>
<g id="clust13" class="cluster">
<title>cluster_HomeModule</title>
<polygon fill="none" stroke="#000000" stroke-dasharray="1,5" points="497,-70 497,-271 807,-271 807,-70 497,-70"/>
</g>
<g id="clust14" class="cluster">
<title>cluster_HomeModule_declarations</title>
<polygon fill="none" stroke="#000000" points="667,-154 667,-206 799,-206 799,-154 667,-154"/>
</g>
<g id="clust15" class="cluster">
<title>cluster_HomeModule_HomeComponent_providers</title>
<polygon fill="none" stroke="#000000" points="655,-78 655,-130 799,-130 799,-78 655,-78"/>
</g>
<g id="clust16" class="cluster">
<title>cluster_HomeModule_imports</title>
<polygon fill="none" stroke="#000000" points="505,-154 505,-206 659,-206 659,-154 505,-154"/>
</g>
<g id="clust26" class="cluster">
<title>cluster_InitializerModule</title>
<polygon fill="none" stroke="#000000" stroke-dasharray="1,5" points="257,-70 257,-138 489,-138 489,-70 257,-70"/>
</g>
<g id="clust31" class="cluster">
<title>cluster_InitializerModule_providers</title>
<polygon fill="none" stroke="#000000" points="265,-78 265,-130 481,-130 481,-78 265,-78"/>
</g>
<!-- AppRoutingModule -->
<g id="node1" class="node">
<title>AppRoutingModule</title>
<polygon fill="#8dd3c7" stroke="#000000" points="269.2744,-198 266.2744,-202 245.2744,-202 242.2744,-198 140.7256,-198 140.7256,-162 269.2744,-162 269.2744,-198"/>
<text text-anchor="middle" x="205" y="-175.8" font-family="Times,serif" font-size="14.00" fill="#000000">AppRoutingModule</text>
</g>
<!-- AppModule -->
<g id="node4" class="node">
<title>AppModule</title>
<polygon fill="#8dd3c7" stroke="#000000" points="246.6571,-263 243.6571,-267 222.6571,-267 219.6571,-263 163.3429,-263 163.3429,-227 246.6571,-227 246.6571,-263"/>
<text text-anchor="middle" x="205" y="-240.8" font-family="Times,serif" font-size="14.00" fill="#000000">AppModule</text>
</g>
<!-- AppRoutingModule&#45;&gt;AppModule -->
<g id="edge1" class="edge">
<title>AppRoutingModule&#45;&gt;AppModule</title>
<path fill="none" stroke="#000000" d="M205,-198.1061C205,-198.1061 205,-216.991 205,-216.991"/>
<polygon fill="#000000" stroke="#000000" points="201.5001,-216.9909 205,-226.991 208.5001,-216.991 201.5001,-216.9909"/>
</g>
<!-- InitializerModule -->
<g id="node2" class="node">
<title>InitializerModule</title>
<polygon fill="#8dd3c7" stroke="#000000" points="400.9678,-198 397.9678,-202 376.9678,-202 373.9678,-198 287.0322,-198 287.0322,-162 400.9678,-162 400.9678,-198"/>
<text text-anchor="middle" x="344" y="-175.8" font-family="Times,serif" font-size="14.00" fill="#000000">InitializerModule</text>
</g>
<!-- InitializerModule&#45;&gt;AppModule -->
<g id="edge2" class="edge">
<title>InitializerModule&#45;&gt;AppModule</title>
<path fill="none" stroke="#000000" d="M344,-198.1061C344,-217.3391 344,-245 344,-245 344,-245 256.7046,-245 256.7046,-245"/>
<polygon fill="#000000" stroke="#000000" points="256.7046,-241.5001 246.7046,-245 256.7045,-248.5001 256.7046,-241.5001"/>
</g>
<!-- SharedModule -->
<g id="node3" class="node">
<title>SharedModule</title>
<polygon fill="#8dd3c7" stroke="#000000" points="122.4231,-198 119.4231,-202 98.4231,-202 95.4231,-198 23.5769,-198 23.5769,-162 122.4231,-162 122.4231,-198"/>
<text text-anchor="middle" x="73" y="-175.8" font-family="Times,serif" font-size="14.00" fill="#000000">SharedModule</text>
</g>
<!-- SharedModule&#45;&gt;AppModule -->
<g id="edge3" class="edge">
<title>SharedModule&#45;&gt;AppModule</title>
<path fill="none" stroke="#000000" d="M73,-198.1061C73,-217.3391 73,-245 73,-245 73,-245 153.2344,-245 153.2344,-245"/>
<polygon fill="#000000" stroke="#000000" points="153.2344,-248.5001 163.2344,-245 153.2343,-241.5001 153.2344,-248.5001"/>
</g>
<!-- { useHash: true } -->
<g id="node5" class="node">
<title>{ useHash: true }</title>
<polygon fill="#8dd3c7" stroke="#000000" points="232.5186,-122 229.5186,-126 208.5186,-126 205.5186,-122 119.4814,-122 119.4814,-86 232.5186,-86 232.5186,-122"/>
<text text-anchor="middle" x="176" y="-99.8" font-family="Times,serif" font-size="14.00" fill="#000000">{ useHash: true }</text>
</g>
<!-- { useHash: true }&#45;&gt;AppRoutingModule -->
<g id="edge4" class="edge">
<title>{ useHash: true }&#45;&gt;AppRoutingModule</title>
<path fill="none" stroke="#000000" d="M186.5611,-122.0109C186.5611,-122.0109 186.5611,-151.855 186.5611,-151.855"/>
<polygon fill="#000000" stroke="#000000" points="183.0612,-151.8549 186.5611,-161.855 190.0612,-151.855 183.0612,-151.8549"/>
</g>
<!-- HomeComponent -->
<g id="node6" class="node">
<title>HomeComponent</title>
<polygon fill="#ffffb3" stroke="#000000" points="790.5451,-198 675.4549,-198 675.4549,-162 790.5451,-162 790.5451,-198"/>
<text text-anchor="middle" x="733" y="-175.8" font-family="Times,serif" font-size="14.00" fill="#000000">HomeComponent</text>
</g>
<!-- HomeModule -->
<g id="node7" class="node">
<title>HomeModule</title>
<polygon fill="#8dd3c7" stroke="#000000" points="703.7619,-263 700.7619,-267 679.7619,-267 676.7619,-263 610.2381,-263 610.2381,-227 703.7619,-227 703.7619,-263"/>
<text text-anchor="middle" x="657" y="-240.8" font-family="Times,serif" font-size="14.00" fill="#000000">HomeModule</text>
</g>
<!-- HomeComponent&#45;&gt;HomeModule -->
<g id="edge5" class="edge">
<title>HomeComponent&#45;&gt;HomeModule</title>
<path fill="none" stroke="#000000" d="M689.5544,-198.1061C689.5544,-198.1061 689.5544,-216.991 689.5544,-216.991"/>
<polygon fill="#000000" stroke="#000000" points="686.0544,-216.9909 689.5544,-226.991 693.0544,-216.991 686.0544,-216.9909"/>
</g>
<!-- HomeService -->
<g id="node8" class="node">
<title>HomeService</title>
<ellipse fill="#fdb462" stroke="#000000" cx="727" cy="-104" rx="63.6813" ry="18"/>
<text text-anchor="middle" x="727" y="-99.8" font-family="Times,serif" font-size="14.00" fill="#000000">HomeService</text>
</g>
<!-- HomeService&#45;&gt;HomeComponent -->
<g id="edge6" class="edge">
<title>HomeService&#45;&gt;HomeComponent</title>
<path fill="none" stroke="#000000" d="M732.9092,-122.0109C732.9092,-122.0109 732.9092,-151.855 732.9092,-151.855"/>
<polygon fill="#000000" stroke="#000000" points="729.4093,-151.8549 732.9092,-161.855 736.4093,-151.855 729.4093,-151.8549"/>
</g>
<!-- HomeRoutingModule -->
<g id="node9" class="node">
<title>HomeRoutingModule</title>
<polygon fill="#8dd3c7" stroke="#000000" points="651.3795,-198 648.3795,-202 627.3795,-202 624.3795,-198 512.6205,-198 512.6205,-162 651.3795,-162 651.3795,-198"/>
<text text-anchor="middle" x="582" y="-175.8" font-family="Times,serif" font-size="14.00" fill="#000000">HomeRoutingModule</text>
</g>
<!-- HomeRoutingModule&#45;&gt;HomeModule -->
<g id="edge7" class="edge">
<title>HomeRoutingModule&#45;&gt;HomeModule</title>
<path fill="none" stroke="#000000" d="M630.7795,-198.1061C630.7795,-198.1061 630.7795,-216.991 630.7795,-216.991"/>
<polygon fill="#000000" stroke="#000000" points="627.2795,-216.9909 630.7795,-226.991 634.2795,-216.991 627.2795,-216.9909"/>
</g>
<!-- HttpInterceptorService -->
<g id="node10" class="node">
<title>HttpInterceptorService</title>
<ellipse fill="#fdb462" stroke="#000000" cx="373" cy="-104" rx="99.5327" ry="18"/>
<text text-anchor="middle" x="373" y="-99.8" font-family="Times,serif" font-size="14.00" fill="#000000">HttpInterceptorService</text>
</g>
<!-- HttpInterceptorService&#45;&gt;InitializerModule -->
<g id="edge8" class="edge">
<title>HttpInterceptorService&#45;&gt;InitializerModule</title>
<path fill="none" stroke="#000000" d="M344,-121.2456C344,-121.2456 344,-151.7629 344,-151.7629"/>
<polygon fill="#000000" stroke="#000000" points="340.5001,-151.7628 344,-161.7629 347.5001,-151.7629 340.5001,-151.7628"/>
</g>
</g>
</svg>
