<?xml version="1.0" encoding="UTF-8" standalone="no"?>
<!DOCTYPE svg PUBLIC "-//W3C//DTD SVG 1.1//EN"
 "http://www.w3.org/Graphics/SVG/1.1/DTD/svg11.dtd">
<!-- Generated by graphviz version 2.46.0 (20210119.1425)
 -->
<!-- Title: dependencies Pages: 1 -->
<svg width="890pt" height="360pt"
 viewBox="0.00 0.00 890.00 360.00" xmlns="http://www.w3.org/2000/svg" xmlns:xlink="http://www.w3.org/1999/xlink">
<g id="graph0" class="graph" transform="scale(1 1) rotate(0) translate(4 356)">
<title>dependencies</title>
<polygon fill="white" stroke="transparent" points="-4,4 -4,-356 886,-356 886,4 -4,4"/>
<text text-anchor="start" x="420.01" y="-42.4" font-family="sans-serif" font-weight="bold" font-size="14.00">Legend</text>
<polygon fill="#ffffb3" stroke="transparent" points="207,-10 207,-30 227,-30 227,-10 207,-10"/>
<text text-anchor="start" x="230.63" y="-15.4" font-family="sans-serif" font-size="14.00"> &#160;Declarations</text>
<polygon fill="#8dd3c7" stroke="transparent" points="320,-10 320,-30 340,-30 340,-10 320,-10"/>
<text text-anchor="start" x="343.73" y="-15.4" font-family="sans-serif" font-size="14.00"> &#160;Module</text>
<polygon fill="#80b1d3" stroke="transparent" points="406,-10 406,-30 426,-30 426,-10 406,-10"/>
<text text-anchor="start" x="429.78" y="-15.4" font-family="sans-serif" font-size="14.00"> &#160;Bootstrap</text>
<polygon fill="#fdb462" stroke="transparent" points="503,-10 503,-30 523,-30 523,-10 503,-10"/>
<text text-anchor="start" x="526.67" y="-15.4" font-family="sans-serif" font-size="14.00"> &#160;Providers</text>
<polygon fill="#fb8072" stroke="transparent" points="599,-10 599,-30 619,-30 619,-10 599,-10"/>
<text text-anchor="start" x="622.73" y="-15.4" font-family="sans-serif" font-size="14.00"> &#160;Exports</text>
<g id="clust1" class="cluster">
<title>cluster_AppModule</title>
<polygon fill="none" stroke="black" stroke-dasharray="1,5" points="336,-146 336,-344 874,-344 874,-146 336,-146"/>
</g>
<g id="clust2" class="cluster">
<title>cluster_AppModule_declarations</title>
<polygon fill="none" stroke="black" points="744,-154 744,-206 866,-206 866,-154 744,-154"/>
</g>
<g id="clust4" class="cluster">
<title>cluster_AppModule_imports</title>
<polygon fill="none" stroke="black" points="344,-154 344,-206 736,-206 736,-154 344,-154"/>
</g>
<g id="clust6" class="cluster">
<title>cluster_AppModule_bootstrap</title>
<polygon fill="none" stroke="black" points="532,-284 532,-336 656,-336 656,-284 532,-284"/>
</g>
<g id="clust14" class="cluster">
<title>cluster_HomeModule</title>
<polygon fill="none" stroke="black" stroke-dasharray="1,5" points="18,-146 18,-271 328,-271 328,-146 18,-146"/>
</g>
<g id="clust15" class="cluster">
<title>cluster_HomeModule_declarations</title>
<polygon fill="none" stroke="black" points="188,-154 188,-206 320,-206 320,-154 188,-154"/>
</g>
<g id="clust17" class="cluster">
<title>cluster_HomeModule_imports</title>
<polygon fill="none" stroke="black" points="26,-154 26,-206 180,-206 180,-154 26,-154"/>
</g>
<g id="clust27" class="cluster">
<title>cluster_InitializerModule</title>
<polygon fill="none" stroke="black" stroke-dasharray="1,5" points="604,-70 604,-138 836,-138 836,-70 604,-70"/>
</g>
<g id="clust32" class="cluster">
<title>cluster_InitializerModule_providers</title>
<polygon fill="none" stroke="black" points="612,-78 612,-130 828,-130 828,-78 612,-78"/>
</g>
<g id="clust33" class="cluster">
<title>cluster_SharedModule</title>
<polygon fill="none" stroke="black" stroke-dasharray="1,5" points="8,-70 8,-138 596,-138 596,-70 8,-70"/>
</g>
<g id="clust34" class="cluster">
<title>cluster_SharedModule_declarations</title>
<polygon fill="none" stroke="black" points="386,-78 386,-130 588,-130 588,-78 386,-78"/>
</g>
<g id="clust37" class="cluster">
<title>cluster_SharedModule_exports</title>
<polygon fill="none" stroke="black" points="172,-78 172,-130 378,-130 378,-78 172,-78"/>
</g>
<g id="clust39" class="cluster">
<title>cluster_SharedModule_providers</title>
<polygon fill="none" stroke="black" points="16,-78 16,-130 164,-130 164,-78 16,-78"/>
</g>
<!-- AppComponent -->
<g id="node1" class="node">
<title>AppComponent</title>
<polygon fill="#ffffb3" stroke="black" points="857.94,-198 752.06,-198 752.06,-162 857.94,-162 857.94,-198"/>
<text text-anchor="middle" x="805" y="-175.8" font-family="Times,serif" font-size="14.00">AppComponent</text>
</g>
<!-- AppModule -->
<g id="node2" class="node">
<title>AppModule</title>
<polygon fill="#8dd3c7" stroke="black" points="635.66,-263 632.66,-267 611.66,-267 608.66,-263 552.34,-263 552.34,-227 635.66,-227 635.66,-263"/>
<text text-anchor="middle" x="594" y="-240.8" font-family="Times,serif" font-size="14.00">AppModule</text>
</g>
<!-- AppComponent&#45;&gt;AppModule -->
<g id="edge1" class="edge">
<title>AppComponent&#45;&gt;AppModule</title>
<path fill="none" stroke="black" d="M805,-198.11C805,-217.34 805,-245 805,-245 805,-245 645.69,-245 645.69,-245"/>
<polygon fill="black" stroke="black" points="645.69,-241.5 635.69,-245 645.69,-248.5 645.69,-241.5"/>
</g>
<!-- AppComponent  -->
<g id="node6" class="node">
<title>AppComponent </title>
<polygon fill="#80b1d3" stroke="black" points="648.44,-328 539.56,-328 539.56,-292 648.44,-292 648.44,-328"/>
<text text-anchor="middle" x="594" y="-305.8" font-family="Times,serif" font-size="14.00">AppComponent </text>
</g>
<!-- AppModule&#45;&gt;AppComponent  -->
<g id="edge5" class="edge">
<title>AppModule&#45;&gt;AppComponent </title>
<path fill="none" stroke="black" stroke-dasharray="1,5" d="M594,-263.11C594,-263.11 594,-281.99 594,-281.99"/>
<polygon fill="black" stroke="black" points="590.5,-281.99 594,-291.99 597.5,-281.99 590.5,-281.99"/>
</g>
<!-- AppRoutingModule -->
<g id="node3" class="node">
<title>AppRoutingModule</title>
<polygon fill="#8dd3c7" stroke="black" points="728.27,-198 725.27,-202 704.27,-202 701.27,-198 599.73,-198 599.73,-162 728.27,-162 728.27,-198"/>
<text text-anchor="middle" x="664" y="-175.8" font-family="Times,serif" font-size="14.00">AppRoutingModule</text>
</g>
<!-- AppRoutingModule&#45;&gt;AppModule -->
<g id="edge2" class="edge">
<title>AppRoutingModule&#45;&gt;AppModule</title>
<path fill="none" stroke="black" d="M617.72,-198.11C617.72,-198.11 617.72,-216.99 617.72,-216.99"/>
<polygon fill="black" stroke="black" points="614.22,-216.99 617.72,-226.99 621.22,-216.99 614.22,-216.99"/>
</g>
<!-- InitializerModule -->
<g id="node4" class="node">
<title>InitializerModule</title>
<polygon fill="#8dd3c7" stroke="black" points="581.97,-198 578.97,-202 557.97,-202 554.97,-198 468.03,-198 468.03,-162 581.97,-162 581.97,-198"/>
<text text-anchor="middle" x="525" y="-175.8" font-family="Times,serif" font-size="14.00">InitializerModule</text>
</g>
<!-- InitializerModule&#45;&gt;AppModule -->
<g id="edge3" class="edge">
<title>InitializerModule&#45;&gt;AppModule</title>
<path fill="none" stroke="black" d="M567.08,-198.11C567.08,-198.11 567.08,-216.99 567.08,-216.99"/>
<polygon fill="black" stroke="black" points="563.58,-216.99 567.08,-226.99 570.58,-216.99 563.58,-216.99"/>
</g>
<!-- SharedModule -->
<g id="node5" class="node">
<title>SharedModule</title>
<polygon fill="#8dd3c7" stroke="black" points="450.42,-198 447.42,-202 426.42,-202 423.42,-198 351.58,-198 351.58,-162 450.42,-162 450.42,-198"/>
<text text-anchor="middle" x="401" y="-175.8" font-family="Times,serif" font-size="14.00">SharedModule</text>
</g>
<!-- SharedModule&#45;&gt;AppModule -->
<g id="edge4" class="edge">
<title>SharedModule&#45;&gt;AppModule</title>
<path fill="none" stroke="black" d="M417.4,-198.02C417.4,-215.37 417.4,-239 417.4,-239 417.4,-239 542.15,-239 542.15,-239"/>
<polygon fill="black" stroke="black" points="542.15,-242.5 552.15,-239 542.15,-235.5 542.15,-242.5"/>
</g>
<!-- HomeModule -->
<g id="node8" class="node">
<title>HomeModule</title>
<polygon fill="#8dd3c7" stroke="black" points="300.76,-263 297.76,-267 276.76,-267 273.76,-263 207.24,-263 207.24,-227 300.76,-227 300.76,-263"/>
<text text-anchor="middle" x="254" y="-240.8" font-family="Times,serif" font-size="14.00">HomeModule</text>
</g>
<!-- SharedModule&#45;&gt;HomeModule -->
<g id="edge8" class="edge">
<title>SharedModule&#45;&gt;HomeModule</title>
<path fill="none" stroke="black" d="M384.6,-198.28C384.6,-219.32 384.6,-251 384.6,-251 384.6,-251 310.78,-251 310.78,-251"/>
<polygon fill="black" stroke="black" points="310.78,-247.5 300.78,-251 310.78,-254.5 310.78,-247.5"/>
</g>
<!-- HttpGraphicSpeedComponent  -->
<g id="node12" class="node">
<title>HttpGraphicSpeedComponent </title>
<polygon fill="#fb8072" stroke="black" points="369.52,-122 180.48,-122 180.48,-86 369.52,-86 369.52,-122"/>
<text text-anchor="middle" x="275" y="-99.8" font-family="Times,serif" font-size="14.00">HttpGraphicSpeedComponent </text>
</g>
<!-- SharedModule&#45;&gt;HttpGraphicSpeedComponent  -->
<g id="edge11" class="edge">
<title>SharedModule&#45;&gt;HttpGraphicSpeedComponent </title>
<path fill="none" stroke="black" stroke-dasharray="5,2" d="M363.6,-161.99C363.6,-161.99 363.6,-132.15 363.6,-132.15"/>
<polygon fill="black" stroke="black" points="367.1,-132.15 363.6,-122.15 360.1,-132.15 367.1,-132.15"/>
</g>
<!-- HomeComponent -->
<g id="node7" class="node">
<title>HomeComponent</title>
<polygon fill="#ffffb3" stroke="black" points="311.55,-198 196.45,-198 196.45,-162 311.55,-162 311.55,-198"/>
<text text-anchor="middle" x="254" y="-175.8" font-family="Times,serif" font-size="14.00">HomeComponent</text>
</g>
<!-- HomeComponent&#45;&gt;HomeModule -->
<g id="edge6" class="edge">
<title>HomeComponent&#45;&gt;HomeModule</title>
<path fill="none" stroke="black" d="M254,-198.11C254,-198.11 254,-216.99 254,-216.99"/>
<polygon fill="black" stroke="black" points="250.5,-216.99 254,-226.99 257.5,-216.99 250.5,-216.99"/>
</g>
<!-- HomeRoutingModule -->
<g id="node9" class="node">
<title>HomeRoutingModule</title>
<polygon fill="#8dd3c7" stroke="black" points="172.38,-198 169.38,-202 148.38,-202 145.38,-198 33.62,-198 33.62,-162 172.38,-162 172.38,-198"/>
<text text-anchor="middle" x="103" y="-175.8" font-family="Times,serif" font-size="14.00">HomeRoutingModule</text>
</g>
<!-- HomeRoutingModule&#45;&gt;HomeModule -->
<g id="edge7" class="edge">
<title>HomeRoutingModule&#45;&gt;HomeModule</title>
<path fill="none" stroke="black" d="M103,-198.11C103,-217.34 103,-245 103,-245 103,-245 197.05,-245 197.05,-245"/>
<polygon fill="black" stroke="black" points="197.05,-248.5 207.05,-245 197.05,-241.5 197.05,-248.5"/>
</g>
<!-- HttpInterceptorService -->
<g id="node10" class="node">
<title>HttpInterceptorService</title>
<ellipse fill="#fdb462" stroke="black" cx="720" cy="-104" rx="99.53" ry="18"/>
<text text-anchor="middle" x="720" y="-99.8" font-family="Times,serif" font-size="14.00">HttpInterceptorService</text>
</g>
<!-- HttpInterceptorService&#45;&gt;InitializerModule -->
<g id="edge9" class="edge">
<title>HttpInterceptorService&#45;&gt;InitializerModule</title>
<path fill="none" stroke="black" d="M620.44,-104C603.26,-104 590.8,-104 590.8,-104 590.8,-104 590.8,-180 590.8,-180 590.8,-180 589.94,-180 589.94,-180"/>
<polygon fill="black" stroke="black" points="592.2,-176.5 582.2,-180 592.2,-183.5 592.2,-176.5"/>
</g>
<!-- HttpGraphicSpeedComponent -->
<g id="node11" class="node">
<title>HttpGraphicSpeedComponent</title>
<polygon fill="#ffffb3" stroke="black" points="579.52,-122 394.48,-122 394.48,-86 579.52,-86 579.52,-122"/>
<text text-anchor="middle" x="487" y="-99.8" font-family="Times,serif" font-size="14.00">HttpGraphicSpeedComponent</text>
</g>
<!-- HttpGraphicSpeedComponent&#45;&gt;SharedModule -->
<g id="edge10" class="edge">
<title>HttpGraphicSpeedComponent&#45;&gt;SharedModule</title>
<path fill="none" stroke="black" d="M422.23,-122.01C422.23,-122.01 422.23,-151.85 422.23,-151.85"/>
<polygon fill="black" stroke="black" points="418.73,-151.85 422.23,-161.85 425.73,-151.85 418.73,-151.85"/>
</g>
<!-- GlobalService -->
<g id="node13" class="node">
<title>GlobalService</title>
<ellipse fill="#fdb462" stroke="black" cx="90" cy="-104" rx="66.05" ry="18"/>
<text text-anchor="middle" x="90" y="-99.8" font-family="Times,serif" font-size="14.00">GlobalService</text>
</g>
<!-- GlobalService&#45;&gt;SharedModule -->
<g id="edge12" class="edge">
<title>GlobalService&#45;&gt;SharedModule</title>
<path fill="none" stroke="black" d="M94.92,-122.11C94.92,-131.9 94.92,-142 94.92,-142 94.92,-142 357.7,-142 357.7,-142 357.7,-142 357.7,-151.89 357.7,-151.89"/>
<polygon fill="black" stroke="black" points="354.2,-151.89 357.7,-161.89 361.2,-151.89 354.2,-151.89"/>
</g>
</g>
</svg>
