<?xml version="1.0" encoding="UTF-8" standalone="no"?>
<!DOCTYPE svg PUBLIC "-//W3C//DTD SVG 1.1//EN"
 "http://www.w3.org/Graphics/SVG/1.1/DTD/svg11.dtd">
<!-- Generated by graphviz version 2.46.0 (20210119.1425)
 -->
<!-- Title: dependencies Pages: 1 -->
<svg width="562pt" height="284pt"
 viewBox="0.00 0.00 562.00 284.00" xmlns="http://www.w3.org/2000/svg" xmlns:xlink="http://www.w3.org/1999/xlink">
<g id="graph0" class="graph" transform="scale(1 1) rotate(0) translate(4 280)">
<title>dependencies</title>
<polygon fill="white" stroke="transparent" points="-4,4 -4,-280 558,-280 558,4 -4,4"/>
<text text-anchor="start" x="256.01" y="-42.4" font-family="sans-serif" font-weight="bold" font-size="14.00">Legend</text>
<polygon fill="#ffffb3" stroke="transparent" points="43,-10 43,-30 63,-30 63,-10 43,-10"/>
<text text-anchor="start" x="66.63" y="-15.4" font-family="sans-serif" font-size="14.00"> &#160;Declarations</text>
<polygon fill="#8dd3c7" stroke="transparent" points="156,-10 156,-30 176,-30 176,-10 156,-10"/>
<text text-anchor="start" x="179.73" y="-15.4" font-family="sans-serif" font-size="14.00"> &#160;Module</text>
<polygon fill="#80b1d3" stroke="transparent" points="242,-10 242,-30 262,-30 262,-10 242,-10"/>
<text text-anchor="start" x="265.78" y="-15.4" font-family="sans-serif" font-size="14.00"> &#160;Bootstrap</text>
<polygon fill="#fdb462" stroke="transparent" points="339,-10 339,-30 359,-30 359,-10 339,-10"/>
<text text-anchor="start" x="362.67" y="-15.4" font-family="sans-serif" font-size="14.00"> &#160;Providers</text>
<polygon fill="#fb8072" stroke="transparent" points="435,-10 435,-30 455,-30 455,-10 435,-10"/>
<text text-anchor="start" x="458.73" y="-15.4" font-family="sans-serif" font-size="14.00"> &#160;Exports</text>
<g id="clust1" class="cluster">
<title>cluster_AppModule</title>
<polygon fill="none" stroke="black" stroke-dasharray="1,5" points="8,-70 8,-268 546,-268 546,-70 8,-70"/>
</g>
<g id="clust2" class="cluster">
<title>cluster_AppModule_declarations</title>
<polygon fill="none" stroke="black" points="416,-78 416,-130 538,-130 538,-78 416,-78"/>
</g>
<g id="clust4" class="cluster">
<title>cluster_AppModule_imports</title>
<polygon fill="none" stroke="black" points="16,-78 16,-130 408,-130 408,-78 16,-78"/>
</g>
<g id="clust6" class="cluster">
<title>cluster_AppModule_bootstrap</title>
<polygon fill="none" stroke="black" points="204,-208 204,-260 328,-260 328,-208 204,-208"/>
</g>
<!-- AppComponent -->
<g id="node1" class="node">
<title>AppComponent</title>
<polygon fill="#ffffb3" stroke="black" points="529.94,-122 424.06,-122 424.06,-86 529.94,-86 529.94,-122"/>
<text text-anchor="middle" x="477" y="-99.8" font-family="Times,serif" font-size="14.00">AppComponent</text>
</g>
<!-- AppModule -->
<g id="node2" class="node">
<title>AppModule</title>
<polygon fill="#8dd3c7" stroke="black" points="307.66,-187 304.66,-191 283.66,-191 280.66,-187 224.34,-187 224.34,-151 307.66,-151 307.66,-187"/>
<text text-anchor="middle" x="266" y="-164.8" font-family="Times,serif" font-size="14.00">AppModule</text>
</g>
<!-- AppComponent&#45;&gt;AppModule -->
<g id="edge1" class="edge">
<title>AppComponent&#45;&gt;AppModule</title>
<path fill="none" stroke="black" d="M477,-122.11C477,-141.34 477,-169 477,-169 477,-169 317.69,-169 317.69,-169"/>
<polygon fill="black" stroke="black" points="317.69,-165.5 307.69,-169 317.69,-172.5 317.69,-165.5"/>
</g>
<!-- AppComponent  -->
<g id="node6" class="node">
<title>AppComponent </title>
<polygon fill="#80b1d3" stroke="black" points="320.44,-252 211.56,-252 211.56,-216 320.44,-216 320.44,-252"/>
<text text-anchor="middle" x="266" y="-229.8" font-family="Times,serif" font-size="14.00">AppComponent </text>
</g>
<!-- AppModule&#45;&gt;AppComponent  -->
<g id="edge5" class="edge">
<title>AppModule&#45;&gt;AppComponent </title>
<path fill="none" stroke="black" stroke-dasharray="1,5" d="M266,-187.11C266,-187.11 266,-205.99 266,-205.99"/>
<polygon fill="black" stroke="black" points="262.5,-205.99 266,-215.99 269.5,-205.99 262.5,-205.99"/>
</g>
<!-- AppRoutingModule -->
<g id="node3" class="node">
<title>AppRoutingModule</title>
<polygon fill="#8dd3c7" stroke="black" points="400.27,-122 397.27,-126 376.27,-126 373.27,-122 271.73,-122 271.73,-86 400.27,-86 400.27,-122"/>
<text text-anchor="middle" x="336" y="-99.8" font-family="Times,serif" font-size="14.00">AppRoutingModule</text>
</g>
<!-- AppRoutingModule&#45;&gt;AppModule -->
<g id="edge2" class="edge">
<title>AppRoutingModule&#45;&gt;AppModule</title>
<path fill="none" stroke="black" d="M289.72,-122.11C289.72,-122.11 289.72,-140.99 289.72,-140.99"/>
<polygon fill="black" stroke="black" points="286.22,-140.99 289.72,-150.99 293.22,-140.99 286.22,-140.99"/>
</g>
<!-- InitializerModule -->
<g id="node4" class="node">
<title>InitializerModule</title>
<polygon fill="#8dd3c7" stroke="black" points="253.97,-122 250.97,-126 229.97,-126 226.97,-122 140.03,-122 140.03,-86 253.97,-86 253.97,-122"/>
<text text-anchor="middle" x="197" y="-99.8" font-family="Times,serif" font-size="14.00">InitializerModule</text>
</g>
<!-- InitializerModule&#45;&gt;AppModule -->
<g id="edge3" class="edge">
<title>InitializerModule&#45;&gt;AppModule</title>
<path fill="none" stroke="black" d="M239.08,-122.11C239.08,-122.11 239.08,-140.99 239.08,-140.99"/>
<polygon fill="black" stroke="black" points="235.58,-140.99 239.08,-150.99 242.58,-140.99 235.58,-140.99"/>
</g>
<!-- SharedModule -->
<g id="node5" class="node">
<title>SharedModule</title>
<polygon fill="#8dd3c7" stroke="black" points="122.42,-122 119.42,-126 98.42,-126 95.42,-122 23.58,-122 23.58,-86 122.42,-86 122.42,-122"/>
<text text-anchor="middle" x="73" y="-99.8" font-family="Times,serif" font-size="14.00">SharedModule</text>
</g>
<!-- SharedModule&#45;&gt;AppModule -->
<g id="edge4" class="edge">
<title>SharedModule&#45;&gt;AppModule</title>
<path fill="none" stroke="black" d="M73,-122.11C73,-141.34 73,-169 73,-169 73,-169 214.12,-169 214.12,-169"/>
<polygon fill="black" stroke="black" points="214.12,-172.5 224.12,-169 214.12,-165.5 214.12,-172.5"/>
</g>
</g>
</svg>
